<?xml version="1.0" encoding="UTF-8" standalone="no"?>
<svg width="300px" height="300px" viewBox="0 0 300 300" version="1.1" xmlns="http://www.w3.org/2000/svg" xmlns:xlink="http://www.w3.org/1999/xlink" xmlns:sketch="http://www.bohemiancoding.com/sketch/ns">
    <!-- Generator: Sketch 3.0.4 (8053) - http://www.bohemiancoding.com/sketch -->
    <title>pattern</title>
    <desc>Created with Sketch.</desc>
    <defs></defs>
    <g id="Page-1" stroke="none" stroke-width="1" fill="none" fill-rule="evenodd" sketch:type="MSPage">
        <g id="Artboard-3" sketch:type="MSArtboardGroup" transform="translate(-300.000000, -300.000000)">
            <g id="Rectangle-3" sketch:type="MSLayerGroup" fill-opacity="0.3" fill="#FFFFFF">
                <path d="M325.868569,242.124381 C329.868245,238.097954 336.368863,235.263798 339.330364,230.709157 C342.569819,225.703196 341.164303,219.017973 336.176254,215.74339 C331.195653,212.497429 324.526901,213.913759 321.24786,218.914167 C318.186542,223.637119 318.357869,231.103021 316.045918,236.443682 C313.081012,243.347196 303.069157,244.226342 291.544735,238.232089 C285.254603,250.537352 276.695087,263.743119 268,274.474847 L310.190808,301.999837 C315.657082,291.418905 326.292948,275.058381 333.724901,265.762847 C323.39572,257.464361 320.29886,247.703196 325.868569,242.124381 L325.868569,242.124381 Z M332.26937,221.792963 C333.921341,222.87075 334.395948,225.114109 333.300735,226.768381 C332.226592,228.458536 329.993175,228.909643 328.344822,227.831856 C326.671569,226.736128 326.207603,224.52139 327.295793,222.86007 C328.366105,221.178886 330.596117,220.699157 332.26937,221.792963 L332.26937,221.792963 Z M307.921636,292.28908 L277.779659,272.630691 C281.344102,267.989973 284.184079,263.535507 288.055207,257.5844 C289.614385,255.179992 291.462583,254.67506 292.565032,255.392944 C296.596845,258.021196 287.059598,268.684575 291.362554,271.492031 C295.633373,274.274284 301.916481,259.143837 306.565708,262.182187 C310.165694,264.527429 303.679122,272.072148 307.329122,274.449856 C309.02749,275.563526 311.467988,273.504284 313.597971,272.136653 C317.273085,269.773468 320.684079,272.158225 317.091117,277.694109 C313.505603,283.19774 311.550353,286.180342 307.921636,292.28908 L307.921636,292.28908 Z" id="paintbrush-5-icon" sketch:type="MSShapeGroup" transform="translate(304.500000, 258.000000) rotate(4.000000) translate(-304.500000, -258.000000) "></path>
            </g>
            <g id="Rectangle-3" sketch:type="MSLayerGroup" transform="translate(0.000000, 300.000000)" fill-opacity="0.3" fill="#FFFFFF">
                <path d="M325.868569,242.124381 C329.868245,238.097954 336.368863,235.263798 339.330364,230.709157 C342.569819,225.703196 341.164303,219.017973 336.176254,215.74339 C331.195653,212.497429 324.526901,213.913759 321.24786,218.914167 C318.186542,223.637119 318.357869,231.103021 316.045918,236.443682 C313.081012,243.347196 303.069157,244.226342 291.544735,238.232089 C285.254603,250.537352 276.695087,263.743119 268,274.474847 L310.190808,301.999837 C315.657082,291.418905 326.292948,275.058381 333.724901,265.762847 C323.39572,257.464361 320.29886,247.703196 325.868569,242.124381 L325.868569,242.124381 Z M332.26937,221.792963 C333.921341,222.87075 334.395948,225.114109 333.300735,226.768381 C332.226592,228.458536 329.993175,228.909643 328.344822,227.831856 C326.671569,226.736128 326.207603,224.52139 327.295793,222.86007 C328.366105,221.178886 330.596117,220.699157 332.26937,221.792963 L332.26937,221.792963 Z M307.921636,292.28908 L277.779659,272.630691 C281.344102,267.989973 284.184079,263.535507 288.055207,257.5844 C289.614385,255.179992 291.462583,254.67506 292.565032,255.392944 C296.596845,258.021196 287.059598,268.684575 291.362554,271.492031 C295.633373,274.274284 301.916481,259.143837 306.565708,262.182187 C310.165694,264.527429 303.679122,272.072148 307.329122,274.449856 C309.02749,275.563526 311.467988,273.504284 313.597971,272.136653 C317.273085,269.773468 320.684079,272.158225 317.091117,277.694109 C313.505603,283.19774 311.550353,286.180342 307.921636,292.28908 L307.921636,292.28908 Z" id="paintbrush-5-icon" sketch:type="MSShapeGroup" transform="translate(304.500000, 258.000000) rotate(4.000000) translate(-304.500000, -258.000000) "></path>
                <path d="M288.289803,163.11959 L297.851696,163.11959 C293.231977,170.56693 280.819718,175.609988 272.626186,175.609988 L272.626186,145.697024 L283.091234,145.697024 L283.091234,137.456733 L272.626186,137.456733 L272.626186,135.090121 C272.626186,124.552672 281.686839,123.236109 281.686839,112.950578 C281.686839,105.24567 275.559014,99 268,99 C260.440986,99 254.313161,105.24567 254.313161,112.950578 C254.313161,123.236345 263.373814,124.552672 263.373814,135.090121 L263.373814,137.456733 L252.908766,137.456733 L252.908766,145.697024 L263.373814,145.697024 L263.373814,175.609988 C255.180282,175.609988 242.768023,170.56693 238.148304,163.11959 L247.710197,163.11959 L227,150.089806 L227,174.736752 L232.200417,167.211954 C243.280118,186.031367 258.3568,185.204041 268,196 C277.6432,185.204041 292.719882,186.031367 303.799583,167.211954 L309,174.736752 L309,150.089806 L288.289803,163.11959 L288.289803,163.11959 Z M268,119.149396 C264.646546,119.149396 261.918603,116.368415 261.918603,112.950578 C261.918603,109.53274 264.646546,106.75176 268,106.75176 C271.353454,106.75176 274.081397,109.53274 274.081397,112.950578 C274.081397,116.368415 271.353454,119.149396 268,119.149396 L268,119.149396 Z" id="anchor-4-icon" sketch:type="MSShapeGroup" transform="translate(268.000000, 147.500000) rotate(-138.000000) translate(-268.000000, -147.500000) "></path>
                <path d="M296.771522,39.0007039 C294.774836,37.8640655 293.538409,35.7467112 293.542519,33.4636893 L293.542519,33.4525267 C293.542519,29.8888155 290.629055,27 287.035735,27 C283.442058,27 280.528951,29.8888155 280.528951,33.4525267 L280.528951,33.4638665 C280.532882,35.7497233 279.299135,37.8630024 277.299948,39.0008811 C262.812674,47.2470461 271.137291,74.6328544 256,79.4730024 L256,85.8695388 L318.07147,85.8695388 L318.07147,79.4730024 C302.934,74.6326772 311.258795,47.2468689 296.771522,39.0007039 L296.771522,39.0007039 Z M287.035735,30.8346262 C288.491395,30.8346262 289.675648,32.0088277 289.675648,33.4525267 C289.675648,34.8960485 288.491395,36.0704272 287.035735,36.0704272 C285.580075,36.0704272 284.395821,34.8960485 284.395821,33.4525267 C284.395821,32.0090049 285.580075,30.8346262 287.035735,30.8346262 L287.035735,30.8346262 Z M295.999291,91.1997791 C295.999291,96.0601262 292.026288,100 287.125072,100 C282.224035,100 278.250853,96.0601262 278.250853,91.1997791 L295.999291,91.1997791 L295.999291,91.1997791 Z" id="bell-icon" sketch:type="MSShapeGroup" transform="translate(287.000000, 63.500000) rotate(-120.000000) translate(-287.000000, -63.500000) "></path>
            </g>
            <g id="Rectangle-3" sketch:type="MSLayerGroup" transform="translate(300.000000, 0.000000)" fill-opacity="0.3" fill="#FFFFFF">
                <path d="M325.868569,242.124381 C329.868245,238.097954 336.368863,235.263798 339.330364,230.709157 C342.569819,225.703196 341.164303,219.017973 336.176254,215.74339 C331.195653,212.497429 324.526901,213.913759 321.24786,218.914167 C318.186542,223.637119 318.357869,231.103021 316.045918,236.443682 C313.081012,243.347196 303.069157,244.226342 291.544735,238.232089 C285.254603,250.537352 276.695087,263.743119 268,274.474847 L310.190808,301.999837 C315.657082,291.418905 326.292948,275.058381 333.724901,265.762847 C323.39572,257.464361 320.29886,247.703196 325.868569,242.124381 L325.868569,242.124381 Z M332.26937,221.792963 C333.921341,222.87075 334.395948,225.114109 333.300735,226.768381 C332.226592,228.458536 329.993175,228.909643 328.344822,227.831856 C326.671569,226.736128 326.207603,224.52139 327.295793,222.86007 C328.366105,221.178886 330.596117,220.699157 332.26937,221.792963 L332.26937,221.792963 Z M307.921636,292.28908 L277.779659,272.630691 C281.344102,267.989973 284.184079,263.535507 288.055207,257.5844 C289.614385,255.179992 291.462583,254.67506 292.565032,255.392944 C296.596845,258.021196 287.059598,268.684575 291.362554,271.492031 C295.633373,274.274284 301.916481,259.143837 306.565708,262.182187 C310.165694,264.527429 303.679122,272.072148 307.329122,274.449856 C309.02749,275.563526 311.467988,273.504284 313.597971,272.136653 C317.273085,269.773468 320.684079,272.158225 317.091117,277.694109 C313.505603,283.19774 311.550353,286.180342 307.921636,292.28908 L307.921636,292.28908 Z" id="paintbrush-5-icon" sketch:type="MSShapeGroup" transform="translate(304.500000, 258.000000) rotate(4.000000) translate(-304.500000, -258.000000) "></path>
                <path d="M50.7437722,330.967742 C44.2578826,330.967742 39,325.768645 39,319.354839 C39,312.941226 44.2578826,307.741935 50.7437722,307.741935 C57.2298577,307.741935 62.4875445,312.941226 62.4875445,319.354839 C62.4875445,325.768645 57.2298577,330.967742 50.7437722,330.967742 Z M50.7437722,336.774194 C49.3987189,336.774194 48.0887011,336.623806 46.8291815,336.340065 L46.8291815,344.129032 C46.8291815,346.266968 48.5817438,348 50.7437722,348 C52.9058007,348 54.658363,346.266968 54.658363,344.129032 L54.658363,336.340065 C53.3988434,336.623806 52.0888256,336.774194 50.7437722,336.774194 L50.7437722,336.774194 Z M50.7437722,301.935484 C52.0888256,301.935484 53.3988434,302.085871 54.658363,302.369613 L54.658363,279.870968 C54.658363,277.733032 52.9058007,276 50.7437722,276 C48.5817438,276 46.8291815,277.733032 46.8291815,279.870968 L46.8291815,302.369613 C48.0887011,302.085871 49.3987189,301.935484 50.7437722,301.935484 L50.7437722,301.935484 Z M82.2562278,300.580645 C84.6306228,300.580645 86.5622776,302.490774 86.5622776,304.83871 C86.5622776,307.186645 84.6306228,309.096774 82.2562278,309.096774 C79.8818327,309.096774 77.9501779,307.186645 77.9501779,304.83871 C77.9501779,302.490774 79.8818327,300.580645 82.2562278,300.580645 L82.2562278,300.580645 Z M82.2562278,293.225806 C75.7703381,293.225806 70.5124555,298.425097 70.5124555,304.83871 C70.5124555,311.252516 75.7703381,316.451613 82.2562278,316.451613 C88.7423132,316.451613 94,311.252516 94,304.83871 C94,298.425097 88.7423132,293.225806 82.2562278,293.225806 L82.2562278,293.225806 Z M82.2562278,287.419355 C83.6012811,287.419355 84.9112989,287.569742 86.1708185,287.853484 L86.1708185,279.870968 C86.1708185,277.733032 84.4182562,276 82.2562278,276 C80.0941993,276 78.341637,277.733032 78.341637,279.870968 L78.341637,287.853484 C79.6011566,287.569742 80.9111744,287.419355 82.2562278,287.419355 L82.2562278,287.419355 Z M82.2562278,322.258065 C80.9111744,322.258065 79.6011566,322.107677 78.341637,321.823935 L78.341637,344.129032 C78.341637,346.266968 80.0941993,348 82.2562278,348 C84.4182562,348 86.1708185,346.266968 86.1708185,344.129032 L86.1708185,321.823935 C84.9112989,322.107677 83.6012811,322.258065 82.2562278,322.258065 L82.2562278,322.258065 Z" id="control-panel-5-icon" sketch:type="MSShapeGroup" transform="translate(66.500000, 312.000000) rotate(30.000000) translate(-66.500000, -312.000000) "></path>
                <path d="M164.41574,282.314612 C164.41574,285.704277 161.682378,288.45267 158.310587,288.45267 C154.938797,288.45267 152.205731,285.704575 152.205731,282.314612 C152.205731,278.924648 154.938797,276.176852 158.310587,276.176852 C161.682378,276.176852 164.41574,278.924947 164.41574,282.314612 L164.41574,282.314612 Z M173.994238,253.021505 C173.994238,255.794677 171.757958,258.04301 168.999356,258.04301 C166.240753,258.04301 164.004474,255.794677 164.004474,253.021505 C164.004474,250.247735 166.240753,248 168.999356,248 C171.757958,248 173.994238,250.247735 173.994238,253.021505 L173.994238,253.021505 Z M176.399181,281.322551 C171.673033,281.322551 167.827915,277.457007 167.827915,272.705386 C167.827915,267.953466 171.673033,264.087922 176.399181,264.087922 C181.125329,264.087922 184.970447,267.953466 184.970447,272.705386 C184.970447,277.457007 181.125329,281.322551 176.399181,281.322551 L176.399181,281.322551 Z M153.573452,270.752612 C149.544823,270.752612 146.266867,267.456689 146.266867,263.406049 C146.266867,259.355408 149.544823,256.059784 153.573452,256.059784 C157.602674,256.059784 160.880631,259.355408 160.880631,263.406049 C160.880631,267.456689 157.602971,270.752612 153.573452,270.752612 L153.573452,270.752612 Z M189.870605,371 L140.15815,371 C133.42615,371 128.99546,363.915857 131.912928,357.816311 L146.056928,328.240782 C149.992613,320.011723 152.036177,310.996898 152.036177,301.865641 L152.036177,296.001944 L160.699198,296.001944 C160.699198,302.224789 161.435321,313.527653 155.900299,327.506961 L168.068439,327.506961 L183.528491,360.132413 C185.235321,363.720908 190.278308,361.783359 188.510605,358.090672 C186.922849,354.775345 183.968858,348.478163 176.108474,332.04184 C168.272439,315.657165 169.316194,302.215534 169.316194,296.001646 L177.991984,296.001646 L177.991984,301.865342 C177.991984,310.9966 180.035548,320.011126 183.971233,328.240782 L198.11553,357.815714 C201.032998,363.915857 196.602902,371 189.870605,371 L189.870605,371 Z" id="flask-7-icon" sketch:type="MSShapeGroup" transform="translate(165.000000, 309.500000) rotate(-25.000000) translate(-165.000000, -309.500000) "></path>
                <path d="M235.306927,300.051055 C222.856549,306.091412 210.205573,312.205421 206.694602,313.907029 C200.06968,317.11672 194,308.690145 194,308.690145 L223.6055,294.343928 L235.306927,300.051055 L235.306927,300.051055 Z M278.692049,316.07461 C275.229296,323.332029 265.997238,326.108457 258.112374,322.264171 C251.150131,318.869188 247.530825,311.430486 249.161068,304.738863 C250.091413,300.922012 248.097757,300.403701 245.057908,298.919464 L194.215835,274.12724 C194.215835,274.12724 200.306388,265.716282 206.922752,268.941801 C210.986252,270.923668 227.307466,278.859788 241.370553,285.736071 L244.902398,284.024545 C247.946631,282.547483 249.941539,282.034025 249.02017,278.215275 C247.406417,271.51922 251.043675,264.089805 258.014476,260.712548 C265.908107,256.887256 275.133485,259.686899 278.578704,266.953392 C282.023922,274.219675 278.336985,283.10758 270.509316,287.069415 C264.684277,290.017629 260.599694,287.721314 254.814524,290.554512 C254.234442,290.838571 253.629937,291.134869 253.007063,291.438977 C253.69068,291.775584 254.352587,292.101006 254.985689,292.413132 C260.764806,295.261736 264.854398,292.97534 270.672131,295.937905 C278.48999,299.919788 282.154592,308.816347 278.692049,316.07461 L278.692049,316.07461 Z M256.355218,277.72271 C258.10632,281.415259 263.077413,282.700908 267.436485,280.588408 C271.795976,278.475908 273.918214,273.753279 272.168155,270.060097 C270.416845,266.366915 265.44617,265.081688 261.086471,267.194188 C256.726563,269.305843 254.604117,274.028684 256.355218,277.72271 L256.355218,277.72271 Z M243.252325,290.811347 C243.252325,289.33724 242.070243,288.142126 240.612209,288.142126 C239.153966,288.142126 237.971883,289.337451 237.971883,290.811347 C237.971883,292.285665 239.153966,293.480779 240.612209,293.480779 C242.070243,293.480779 243.252325,292.285665 243.252325,290.811347 L243.252325,290.811347 Z M267.583854,302.411525 C263.229583,300.288051 258.255777,301.561671 256.495282,305.249577 C254.735204,308.93896 256.84617,313.667288 261.201277,315.790551 C265.55534,317.913603 270.528937,316.640827 272.289641,312.951655 C274.048049,309.263116 271.937291,304.53521 267.583854,302.411525 L267.583854,302.411525 Z" id="cut-icon" sketch:type="MSShapeGroup" transform="translate(237.000000, 291.500000) rotate(-135.000000) translate(-237.000000, -291.500000) "></path>
            </g>
            <g id="Rectangle-3" sketch:type="MSLayerGroup" transform="translate(300.000000, 300.000000)">
                <rect sketch:type="MSShapeGroup" x="0" y="0" width="300" height="300"></rect>
                <path d="M325.868569,242.124381 C329.868245,238.097954 336.368863,235.263798 339.330364,230.709157 C342.569819,225.703196 341.164303,219.017973 336.176254,215.74339 C331.195653,212.497429 324.526901,213.913759 321.24786,218.914167 C318.186542,223.637119 318.357869,231.103021 316.045918,236.443682 C313.081012,243.347196 303.069157,244.226342 291.544735,238.232089 C285.254603,250.537352 276.695087,263.743119 268,274.474847 L310.190808,301.999837 C315.657082,291.418905 326.292948,275.058381 333.724901,265.762847 C323.39572,257.464361 320.29886,247.703196 325.868569,242.124381 L325.868569,242.124381 Z M332.26937,221.792963 C333.921341,222.87075 334.395948,225.114109 333.300735,226.768381 C332.226592,228.458536 329.993175,228.909643 328.344822,227.831856 C326.671569,226.736128 326.207603,224.52139 327.295793,222.86007 C328.366105,221.178886 330.596117,220.699157 332.26937,221.792963 L332.26937,221.792963 Z M307.921636,292.28908 L277.779659,272.630691 C281.344102,267.989973 284.184079,263.535507 288.055207,257.5844 C289.614385,255.179992 291.462583,254.67506 292.565032,255.392944 C296.596845,258.021196 287.059598,268.684575 291.362554,271.492031 C295.633373,274.274284 301.916481,259.143837 306.565708,262.182187 C310.165694,264.527429 303.679122,272.072148 307.329122,274.449856 C309.02749,275.563526 311.467988,273.504284 313.597971,272.136653 C317.273085,269.773468 320.684079,272.158225 317.091117,277.694109 C313.505603,283.19774 311.550353,286.180342 307.921636,292.28908 L307.921636,292.28908 Z" id="paintbrush-5-icon" fill-opacity="0.3" fill="#FFFFFF" sketch:type="MSShapeGroup" transform="translate(304.500000, 258.000000) rotate(4.000000) translate(-304.500000, -258.000000) "></path>
                <path d="M165.33356,135 C158.888803,135 153.666893,140.20326 153.666893,146.625 C153.666893,151.752641 157.016472,156.051408 161.638285,157.599226 C162.291618,174.241937 153.77699,176.060403 142.203204,178.489689 C135.555243,179.886044 128.041456,181.494357 122.555631,186.570983 L122.555631,157.538505 C127.076861,155.937867 130.333333,151.680633 130.333333,146.625 C130.333333,140.20326 125.111424,135 118.666667,135 C112.221909,135 107,140.20326 107,146.625 C107,151.680633 110.256472,155.937867 114.777702,157.538505 L114.777702,205.461495 C110.256472,207.062133 107,211.319367 107,216.375 C107,222.79674 112.221909,228 118.666667,228 C125.111424,228 130.333333,222.79674 130.333333,216.375 C130.333333,211.357289 127.128058,207.122854 122.661877,205.491517 C123.711877,190.294595 132.657605,188.413828 143.805502,186.071447 C155.618511,183.592726 170.148835,180.485803 169.389256,157.485684 C173.825081,155.839449 177.000227,151.618333 177.000227,146.625 C177.000227,140.20326 171.778317,135 165.33356,135 Z M111.667799,146.625 C111.667799,142.778367 114.806472,139.650903 118.666893,139.650903 C122.527314,139.650903 125.665987,142.778367 125.665987,146.625 C125.665987,150.471633 122.527314,153.599097 118.666893,153.599097 C114.806472,153.599097 111.667799,150.471633 111.667799,146.625 L111.667799,146.625 Z M125.665987,216.375 C125.665987,220.219828 122.527314,223.349097 118.666893,223.349097 C114.806472,223.349097 111.667799,220.219828 111.667799,216.375 C111.667799,212.530172 114.806472,209.400903 118.666893,209.400903 C122.527314,209.400903 125.665987,212.530172 125.665987,216.375 L125.665987,216.375 Z" id="code-fork-2-icon" fill-opacity="0.3" fill="#FFFFFF" sketch:type="MSShapeGroup"></path>
                <path d="M50.7437722,330.967742 C44.2578826,330.967742 39,325.768645 39,319.354839 C39,312.941226 44.2578826,307.741935 50.7437722,307.741935 C57.2298577,307.741935 62.4875445,312.941226 62.4875445,319.354839 C62.4875445,325.768645 57.2298577,330.967742 50.7437722,330.967742 Z M50.7437722,336.774194 C49.3987189,336.774194 48.0887011,336.623806 46.8291815,336.340065 L46.8291815,344.129032 C46.8291815,346.266968 48.5817438,348 50.7437722,348 C52.9058007,348 54.658363,346.266968 54.658363,344.129032 L54.658363,336.340065 C53.3988434,336.623806 52.0888256,336.774194 50.7437722,336.774194 L50.7437722,336.774194 Z M50.7437722,301.935484 C52.0888256,301.935484 53.3988434,302.085871 54.658363,302.369613 L54.658363,279.870968 C54.658363,277.733032 52.9058007,276 50.7437722,276 C48.5817438,276 46.8291815,277.733032 46.8291815,279.870968 L46.8291815,302.369613 C48.0887011,302.085871 49.3987189,301.935484 50.7437722,301.935484 L50.7437722,301.935484 Z M82.2562278,300.580645 C84.6306228,300.580645 86.5622776,302.490774 86.5622776,304.83871 C86.5622776,307.186645 84.6306228,309.096774 82.2562278,309.096774 C79.8818327,309.096774 77.9501779,307.186645 77.9501779,304.83871 C77.9501779,302.490774 79.8818327,300.580645 82.2562278,300.580645 L82.2562278,300.580645 Z M82.2562278,293.225806 C75.7703381,293.225806 70.5124555,298.425097 70.5124555,304.83871 C70.5124555,311.252516 75.7703381,316.451613 82.2562278,316.451613 C88.7423132,316.451613 94,311.252516 94,304.83871 C94,298.425097 88.7423132,293.225806 82.2562278,293.225806 L82.2562278,293.225806 Z M82.2562278,287.419355 C83.6012811,287.419355 84.9112989,287.569742 86.1708185,287.853484 L86.1708185,279.870968 C86.1708185,277.733032 84.4182562,276 82.2562278,276 C80.0941993,276 78.341637,277.733032 78.341637,279.870968 L78.341637,287.853484 C79.6011566,287.569742 80.9111744,287.419355 82.2562278,287.419355 L82.2562278,287.419355 Z M82.2562278,322.258065 C80.9111744,322.258065 79.6011566,322.107677 78.341637,321.823935 L78.341637,344.129032 C78.341637,346.266968 80.0941993,348 82.2562278,348 C84.4182562,348 86.1708185,346.266968 86.1708185,344.129032 L86.1708185,321.823935 C84.9112989,322.107677 83.6012811,322.258065 82.2562278,322.258065 L82.2562278,322.258065 Z" id="control-panel-5-icon" fill-opacity="0.3" fill="#FFFFFF" sketch:type="MSShapeGroup" transform="translate(66.500000, 312.000000) rotate(30.000000) translate(-66.500000, -312.000000) "></path>
                <path d="M164.41574,282.314612 C164.41574,285.704277 161.682378,288.45267 158.310587,288.45267 C154.938797,288.45267 152.205731,285.704575 152.205731,282.314612 C152.205731,278.924648 154.938797,276.176852 158.310587,276.176852 C161.682378,276.176852 164.41574,278.924947 164.41574,282.314612 L164.41574,282.314612 Z M173.994238,253.021505 C173.994238,255.794677 171.757958,258.04301 168.999356,258.04301 C166.240753,258.04301 164.004474,255.794677 164.004474,253.021505 C164.004474,250.247735 166.240753,248 168.999356,248 C171.757958,248 173.994238,250.247735 173.994238,253.021505 L173.994238,253.021505 Z M176.399181,281.322551 C171.673033,281.322551 167.827915,277.457007 167.827915,272.705386 C167.827915,267.953466 171.673033,264.087922 176.399181,264.087922 C181.125329,264.087922 184.970447,267.953466 184.970447,272.705386 C184.970447,277.457007 181.125329,281.322551 176.399181,281.322551 L176.399181,281.322551 Z M153.573452,270.752612 C149.544823,270.752612 146.266867,267.456689 146.266867,263.406049 C146.266867,259.355408 149.544823,256.059784 153.573452,256.059784 C157.602674,256.059784 160.880631,259.355408 160.880631,263.406049 C160.880631,267.456689 157.602971,270.752612 153.573452,270.752612 L153.573452,270.752612 Z M189.870605,371 L140.15815,371 C133.42615,371 128.99546,363.915857 131.912928,357.816311 L146.056928,328.240782 C149.992613,320.011723 152.036177,310.996898 152.036177,301.865641 L152.036177,296.001944 L160.699198,296.001944 C160.699198,302.224789 161.435321,313.527653 155.900299,327.506961 L168.068439,327.506961 L183.528491,360.132413 C185.235321,363.720908 190.278308,361.783359 188.510605,358.090672 C186.922849,354.775345 183.968858,348.478163 176.108474,332.04184 C168.272439,315.657165 169.316194,302.215534 169.316194,296.001646 L177.991984,296.001646 L177.991984,301.865342 C177.991984,310.9966 180.035548,320.011126 183.971233,328.240782 L198.11553,357.815714 C201.032998,363.915857 196.602902,371 189.870605,371 L189.870605,371 Z" id="flask-7-icon" fill-opacity="0.3" fill="#FFFFFF" sketch:type="MSShapeGroup" transform="translate(165.000000, 309.500000) rotate(-25.000000) translate(-165.000000, -309.500000) "></path>
                <path d="M288.289803,163.11959 L297.851696,163.11959 C293.231977,170.56693 280.819718,175.609988 272.626186,175.609988 L272.626186,145.697024 L283.091234,145.697024 L283.091234,137.456733 L272.626186,137.456733 L272.626186,135.090121 C272.626186,124.552672 281.686839,123.236109 281.686839,112.950578 C281.686839,105.24567 275.559014,99 268,99 C260.440986,99 254.313161,105.24567 254.313161,112.950578 C254.313161,123.236345 263.373814,124.552672 263.373814,135.090121 L263.373814,137.456733 L252.908766,137.456733 L252.908766,145.697024 L263.373814,145.697024 L263.373814,175.609988 C255.180282,175.609988 242.768023,170.56693 238.148304,163.11959 L247.710197,163.11959 L227,150.089806 L227,174.736752 L232.200417,167.211954 C243.280118,186.031367 258.3568,185.204041 268,196 C277.6432,185.204041 292.719882,186.031367 303.799583,167.211954 L309,174.736752 L309,150.089806 L288.289803,163.11959 L288.289803,163.11959 Z M268,119.149396 C264.646546,119.149396 261.918603,116.368415 261.918603,112.950578 C261.918603,109.53274 264.646546,106.75176 268,106.75176 C271.353454,106.75176 274.081397,109.53274 274.081397,112.950578 C274.081397,116.368415 271.353454,119.149396 268,119.149396 L268,119.149396 Z" id="anchor-4-icon" fill-opacity="0.3" fill="#FFFFFF" sketch:type="MSShapeGroup" transform="translate(268.000000, 147.500000) rotate(-138.000000) translate(-268.000000, -147.500000) "></path>
                <path d="M215,186 L198.953888,243.049552 L178.499908,223.819403 L198.655476,202.723134 L171.638825,221.241642 L153,216.748955 L215,186 L215,186 Z M176.023068,227.428806 L176.023068,246.013433 L184.862282,235.875075 L176.023068,227.428806 L176.023068,227.428806 Z" id="paper-plane-icon" fill-opacity="0.3" fill="#FFFFFF" sketch:type="MSShapeGroup" transform="translate(184.000000, 216.000000) rotate(-23.000000) translate(-184.000000, -216.000000) "></path>
                <path d="M296.771522,39.0007039 C294.774836,37.8640655 293.538409,35.7467112 293.542519,33.4636893 L293.542519,33.4525267 C293.542519,29.8888155 290.629055,27 287.035735,27 C283.442058,27 280.528951,29.8888155 280.528951,33.4525267 L280.528951,33.4638665 C280.532882,35.7497233 279.299135,37.8630024 277.299948,39.0008811 C262.812674,47.2470461 271.137291,74.6328544 256,79.4730024 L256,85.8695388 L318.07147,85.8695388 L318.07147,79.4730024 C302.934,74.6326772 311.258795,47.2468689 296.771522,39.0007039 L296.771522,39.0007039 Z M287.035735,30.8346262 C288.491395,30.8346262 289.675648,32.0088277 289.675648,33.4525267 C289.675648,34.8960485 288.491395,36.0704272 287.035735,36.0704272 C285.580075,36.0704272 284.395821,34.8960485 284.395821,33.4525267 C284.395821,32.0090049 285.580075,30.8346262 287.035735,30.8346262 L287.035735,30.8346262 Z M295.999291,91.1997791 C295.999291,96.0601262 292.026288,100 287.125072,100 C282.224035,100 278.250853,96.0601262 278.250853,91.1997791 L295.999291,91.1997791 L295.999291,91.1997791 Z" id="bell-icon" fill-opacity="0.3" fill="#FFFFFF" sketch:type="MSShapeGroup" transform="translate(287.000000, 63.500000) rotate(-120.000000) translate(-287.000000, -63.500000) "></path>
                <path d="M36.0748999,122.814313 C35.7055583,121.182733 36.738093,119.562658 38.3807266,119.195845 C52.6782811,116.002672 53.2173306,116.417039 54.6020237,113.672172 C55.3561524,112.176925 57.188187,111.572536 58.6937415,112.321311 C61.7859395,113.858934 60.0369246,120.470199 53.7090781,121.979252 C51.6358999,122.473769 39.7185038,125.104163 39.7185038,125.104163 C38.0758702,125.471167 36.4444345,124.445701 36.0748999,122.814313 L36.0748999,122.814313 Z M39.7186969,135.509728 L72.5356524,128.181328 C74.1786722,127.814706 75.2106276,126.194631 74.841286,124.563243 C74.4719444,122.931663 72.8408949,121.90658 71.1978751,122.273201 L38.3809197,129.60141 C36.738093,129.968223 35.7057514,131.58849 36.075093,133.22007 C36.4444345,134.851459 38.0758702,135.876733 39.7186969,135.509728 L39.7186969,135.509728 Z M74.841286,134.982806 C74.4719444,133.351226 72.8408949,132.325951 71.1978751,132.692765 L38.3809197,140.021165 C36.738093,140.387978 35.7057514,142.008053 36.075093,143.639442 C36.8593405,147.100677 46.7717118,149.723209 46.7717118,156.446454 L46.7717118,158.903124 L38.9562662,158.903124 L38.9562662,166.769568 C38.9562662,173.22916 45.251484,175.716126 46.9572514,183.014806 L63.8620138,183.014806 C65.5363108,175.8515 71.9276771,173.229352 71.9276771,166.769568 L71.9276771,158.903124 L63.8867266,158.903124 L63.8867266,154.930306 C63.8867266,152.511985 65.5710633,150.415226 67.9452365,149.878333 L72.1819494,148.922279 C73.8247761,148.55585 74.8569246,146.935583 74.4875831,145.304194 C74.1180484,143.672614 72.487192,142.647532 70.8441722,143.014153 L65.9716821,144.145272 C61.2515237,145.240726 57.9127761,149.420823 57.9127761,154.234837 L57.9127761,158.903124 L52.7458553,158.903124 L52.7458553,155.815029 C52.7458553,150.458369 49.4101969,148.274748 45.4789197,144.64324 L72.5356524,138.601274 C74.1784791,138.234461 75.2106276,136.614194 74.841286,134.982806 L74.841286,134.982806 Z M53.7586969,191.000134 L56.9725286,191.000134 C58.6035781,191.000134 59.0053553,190.285874 63.4038603,186.391864 L47.4796969,186.391864 C51.6598405,190.229308 52.090385,191.000134 53.7586969,191.000134 L53.7586969,191.000134 Z" id="light-bulb-3-icon" fill-opacity="0.3" fill="#FFFFFF" sketch:type="MSShapeGroup" transform="translate(55.500000, 151.500000) rotate(-224.000000) translate(-55.500000, -151.500000) "></path>
                <path d="M227.145631,105.95 L227.145631,129.05 L178.951456,129.05 L178.951456,105.95 L227.145631,105.95 L227.145631,105.95 Z M232.097087,101 L174,101 L174,134 L232.097087,134 L232.097087,101 L232.097087,101 Z M235.398058,124.925 L239.359223,124.925 C240.817757,124.925 242,123.743105 242,122.285 L242,112.715 C242,111.256895 240.817757,110.075 239.359223,110.075 L235.398058,110.075 L235.398058,124.925 L235.398058,124.925 Z M190.174757,109.25 L182.252427,109.25 L182.252427,125.75 L190.174757,125.75 L190.174757,109.25 L190.174757,109.25 Z M201.398058,109.25 L193.475728,109.25 L193.475728,125.75 L201.398058,125.75 L201.398058,109.25 L201.398058,109.25 Z M212.621359,109.25 L204.699029,109.25 L204.699029,125.75 L212.621359,125.75 L212.621359,109.25 L212.621359,109.25 Z" id="battery-6-icon" fill-opacity="0.3" fill="#FFFFFF" sketch:type="MSShapeGroup" transform="translate(208.000000, 117.500000) rotate(-103.000000) translate(-208.000000, -117.500000) "></path>
                <path d="M144.687602,113.932039 L144.687602,130.755723 L137.327421,138 L137.327421,113.932039 L144.687602,113.932039 L144.687602,113.932039 Z M121,109.441748 L161.015204,109.441748 C161.015204,92.9823155 150.537557,92.1792718 150.537557,80.5874951 C150.537557,71.708034 156.137195,69.8384563 156.382624,64 L125.63276,64 C125.880543,69.8921602 131.477828,71.6376262 131.477828,80.5874951 L131.477828,80.5892913 C131.477828,92.2146553 121,92.928432 121,109.441748 L121,109.441748 Z M136.024796,73.0132718 L140.440181,73.0132718 L140.440181,89.4123544 L136.024796,89.4123544 L136.024796,73.0132718 L136.024796,73.0132718 Z" id="pin-icon" fill-opacity="0.3" fill="#FFFFFF" sketch:type="MSShapeGroup" transform="translate(141.000000, 101.000000) rotate(-72.000000) translate(-141.000000, -101.000000) "></path>
                <path d="M63.4753324,262 L56,262 L56,195 L63.4753324,195 L63.4753324,262 L63.4753324,262 Z M114.972445,199.999956 C114.972445,199.999956 110.259091,204.169893 104.060038,204.169893 C94.2908379,204.169893 94.0710467,195.725942 82.7299176,195.725942 C76.5978077,195.725942 70.8803187,198.584337 68.4588874,200.666704 L68.4588874,235.916835 C71.8957995,233.526951 77.1185962,231.014777 82.7689808,231.014777 C93.47975,231.014777 94.9811703,239.04632 104.527986,239.04632 C110.694135,239.04632 114.972445,235.0834 114.972445,235.0834 C109.905739,231.427835 106.043508,226.46951 103.989854,220.699216 C108.244662,216.969495 114.192154,206.223964 114.972445,199.999956 L114.972445,199.999956 Z" id="flag-9-icon" fill-opacity="0.3" fill="#FFFFFF" sketch:type="MSShapeGroup" transform="translate(85.500000, 228.500000) rotate(-81.000000) translate(-85.500000, -228.500000) "></path>
                <path d="M235.306927,300.051055 C222.856549,306.091412 210.205573,312.205421 206.694602,313.907029 C200.06968,317.11672 194,308.690145 194,308.690145 L223.6055,294.343928 L235.306927,300.051055 L235.306927,300.051055 Z M278.692049,316.07461 C275.229296,323.332029 265.997238,326.108457 258.112374,322.264171 C251.150131,318.869188 247.530825,311.430486 249.161068,304.738863 C250.091413,300.922012 248.097757,300.403701 245.057908,298.919464 L194.215835,274.12724 C194.215835,274.12724 200.306388,265.716282 206.922752,268.941801 C210.986252,270.923668 227.307466,278.859788 241.370553,285.736071 L244.902398,284.024545 C247.946631,282.547483 249.941539,282.034025 249.02017,278.215275 C247.406417,271.51922 251.043675,264.089805 258.014476,260.712548 C265.908107,256.887256 275.133485,259.686899 278.578704,266.953392 C282.023922,274.219675 278.336985,283.10758 270.509316,287.069415 C264.684277,290.017629 260.599694,287.721314 254.814524,290.554512 C254.234442,290.838571 253.629937,291.134869 253.007063,291.438977 C253.69068,291.775584 254.352587,292.101006 254.985689,292.413132 C260.764806,295.261736 264.854398,292.97534 270.672131,295.937905 C278.48999,299.919788 282.154592,308.816347 278.692049,316.07461 L278.692049,316.07461 Z M256.355218,277.72271 C258.10632,281.415259 263.077413,282.700908 267.436485,280.588408 C271.795976,278.475908 273.918214,273.753279 272.168155,270.060097 C270.416845,266.366915 265.44617,265.081688 261.086471,267.194188 C256.726563,269.305843 254.604117,274.028684 256.355218,277.72271 L256.355218,277.72271 Z M243.252325,290.811347 C243.252325,289.33724 242.070243,288.142126 240.612209,288.142126 C239.153966,288.142126 237.971883,289.337451 237.971883,290.811347 C237.971883,292.285665 239.153966,293.480779 240.612209,293.480779 C242.070243,293.480779 243.252325,292.285665 243.252325,290.811347 L243.252325,290.811347 Z M267.583854,302.411525 C263.229583,300.288051 258.255777,301.561671 256.495282,305.249577 C254.735204,308.93896 256.84617,313.667288 261.201277,315.790551 C265.55534,317.913603 270.528937,316.640827 272.289641,312.951655 C274.048049,309.263116 271.937291,304.53521 267.583854,302.411525 L267.583854,302.411525 Z" id="cut-icon" fill-opacity="0.3" fill="#FFFFFF" sketch:type="MSShapeGroup" transform="translate(237.000000, 291.500000) rotate(-135.000000) translate(-237.000000, -291.500000) "></path>
                <path d="M45.1554745,68.6951553 L37.5426715,76.2896408 L89.3788467,128 L96.9916496,120.405675 L45.1554745,68.6951553 L45.1554745,68.6951553 Z M51.097562,85.2778155 L42.0876788,76.2896408 L45.1554745,73.2292913 L54.1653577,82.2176262 L51.097562,85.2778155 L51.097562,85.2778155 Z M55.1476496,69.1461019 C58.544,70.1809563 61.2024672,72.8329709 62.2398394,76.2210777 C63.2772117,72.8326505 65.9353577,70.1807961 69.3315474,69.1461019 C65.9353577,68.1112476 63.2772117,65.4595534 62.2396788,62.0714466 C61.2024672,65.4593932 58.5441606,68.111568 55.1476496,69.1461019 L55.1476496,69.1461019 Z M40.4057226,88.2718447 C39.03,92.7656117 35.504219,96.2821942 31,97.6547379 C35.504219,99.0272816 39.03,102.544184 40.4057226,107.037631 C41.7814453,102.544184 45.3069051,99.0274417 49.8114453,97.6547379 C45.3069051,96.2823544 41.7814453,92.7656117 40.4057226,88.2718447 L40.4057226,88.2718447 L40.4057226,88.2718447 Z M66.7373139,79.5657718 C69.1398102,80.2978592 71.0200876,82.1735728 71.7537956,84.5702379 C72.4875036,82.1735728 74.3674599,80.2978592 76.7702774,79.5657718 C74.3674599,78.8340049 72.4875036,76.9582913 71.7537956,74.5613058 C71.0200876,76.9579709 69.1398102,78.8340049 66.7373139,79.5657718 L66.7373139,79.5657718 Z M78.9424964,62 C78.1053723,64.734034 75.9601314,66.8742282 73.2188029,67.7093204 C75.9599708,68.544733 78.1052117,70.684767 78.9424964,73.4191214 C79.7796204,70.6846068 81.9248613,68.5444126 84.6658686,67.7094806 C81.9247007,66.8745485 79.7796204,64.7343544 78.9424964,62 L78.9424964,62 L78.9424964,62 Z" id="magic-icon" fill-opacity="0.3" fill="#FFFFFF" sketch:type="MSShapeGroup" transform="translate(64.000000, 95.000000) rotate(7.000000) translate(-64.000000, -95.000000) "></path>
                <path d="M140,37.5873835 L140,33.4125413 L137.744148,32.6103034 C136.884049,32.3044417 136.192041,31.6476481 135.842464,30.8044029 C135.842313,30.8041019 135.842163,30.8037257 135.842012,30.8034248 C135.491456,29.9580728 135.515985,29.0037694 135.908903,28.1772282 L136.936192,26.0159563 L133.984119,23.0638835 L131.823148,24.0910971 C130.997058,24.4837888 130.0414,24.5083932 129.196575,24.1579879 C129.196199,24.1578374 129.195823,24.1577621 129.195522,24.1576117 C128.351675,23.807733 127.695709,23.1167039 127.389697,22.2560024 L126.587308,20 L122.412541,20 L121.610303,22.2558519 C121.304442,23.1159515 120.647648,23.8078835 119.804403,24.1575364 C119.804027,24.1576869 119.803726,24.1578374 119.80335,24.1579126 C118.957998,24.5085437 118.003619,24.4839393 117.177002,24.0910218 L115.015806,23.063733 L112.063733,26.0158058 L113.091022,28.1768519 C113.483714,29.0029417 113.508243,29.9586748 113.157913,30.8035752 C113.157762,30.8038762 113.157612,30.8042524 113.157461,30.8045534 C112.807658,31.6483252 112.116553,32.304216 111.256002,32.6102282 L109,33.4125413 L109,37.5873835 L111.255777,38.3895461 C112.115876,38.6954078 112.807808,39.3522015 113.157461,40.1953714 C113.157612,40.1957476 113.157687,40.1961238 113.157837,40.1964248 C113.508468,41.0418519 113.483939,41.9963058 113.091022,42.8228471 L112.063658,44.9840437 L115.015731,47.9361165 L117.176777,46.9089029 C118.002867,46.5162112 118.9586,46.4916068 119.803425,46.8420121 C119.803801,46.8421626 119.804177,46.8423131 119.804478,46.8424636 C120.64825,47.192267 121.304066,47.8832961 121.610153,48.7439223 L122.412541,51 L126.587308,51 L127.384505,48.7585194 C127.693226,47.8903689 128.355738,47.191665 129.206583,46.837949 C129.206959,46.8377985 129.20726,46.8376481 129.207636,46.8374976 C130.044862,46.4892743 130.990437,46.5131262 131.809379,46.902432 L133.984044,47.9361165 L136.936117,44.9840437 L135.908301,42.8217937 C135.515985,41.9964563 135.491532,41.0416262 135.841636,40.1975534 C135.841786,40.1971772 135.841937,40.1968762 135.842087,40.1965 C136.192267,39.3519005 136.884049,38.695483 137.745502,38.3890947 L140,37.5873835 L140,37.5873835 Z M124.5,41.1842864 C121.360573,41.1842864 118.815563,38.6393519 118.815563,35.5 C118.815563,32.3606481 121.360573,29.8156383 124.5,29.8156383 C127.639352,29.8156383 130.184286,32.3606481 130.184286,35.5 C130.184286,38.6393519 127.639352,41.1842864 124.5,41.1842864 L124.5,41.1842864 Z" id="gear-icon" fill-opacity="0.3" fill="#FFFFFF" sketch:type="MSShapeGroup"></path>
                <path d="M281.034034,224.554364 L259.116867,202.63733 C257.615086,201.135549 256.841642,199.046971 257.005405,196.929556 C257.315603,192.918149 255.937372,188.800784 252.869257,185.732802 C248.875575,181.739252 243.104439,180.608253 238.102912,182.337689 L247.183442,191.418352 C247.391916,194.960957 241.914444,200.438298 238.371971,200.229824 L229.29144,191.149293 C227.56174,196.150821 228.692871,201.922089 232.68642,205.915638 C235.754403,208.983753 239.871767,210.361852 243.883307,210.051787 C246.002971,209.887891 248.087844,210.660012 249.591213,212.163249 L271.50838,234.080283 C274.138778,236.710814 278.403636,236.710814 281.034299,234.080283 C283.664433,231.449752 283.664433,227.184895 281.034034,224.554364 L281.034034,224.554364 Z M275.587645,230.846447 C274.054645,230.846447 272.811737,229.603539 272.811737,228.070275 C272.811737,226.537144 274.054645,225.294368 275.587645,225.294368 C277.120776,225.294368 278.363816,226.537276 278.363816,228.070275 C278.363816,229.603539 277.120776,230.846447 275.587645,230.846447 L275.587645,230.846447 Z" id="wrench-icon" fill-opacity="0.3" fill="#FFFFFF" sketch:type="MSShapeGroup" transform="translate(255.402014, 208.875527) rotate(-244.000000) translate(-255.402014, -208.875527) "></path>
                <path d="M16.7171995,173.935786 C16.7171995,172.866731 17.5967389,172 18.6815936,172 C19.9764778,172 20.9160025,173.214432 20.5779557,174.442561 C20.4508325,174.904961 20.5191084,175.398359 20.7675025,175.810218 C21.3180985,176.723325 22.2561601,177.285607 23.4822808,177.291934 C24.6914951,177.285607 25.6419113,176.730934 26.1970591,175.810218 C26.4454532,175.398359 26.5137291,174.904961 26.3866059,174.442561 C26.0490468,173.216034 26.9863768,172 28.282968,172 C29.3678227,172 30.2473621,172.866731 30.2473621,173.935786 C30.2473621,174.863871 29.5862241,175.632964 28.7127808,175.825277 C28.2706946,175.922595 27.8889187,176.195405 27.6575123,176.57915 C26.7651305,178.059104 28.0604212,179.360041 29.1136576,180.681163 C25.8955074,182.339973 21.0689729,182.339973 17.8509039,180.681163 C18.9204778,179.339617 20.2060148,178.070158 19.3071305,176.57915 C19.0755616,176.195405 18.6939483,175.922675 18.2517808,175.825277 C17.3781749,175.632964 16.7171995,174.863871 16.7171995,173.935786 L16.7171995,173.935786 Z M35.2379212,193.247034 L38.517032,193.247034 C39.3165099,193.247034 39.9645616,192.60842 39.9645616,191.820665 C39.9645616,191.03291 39.3165099,190.394296 38.517032,190.394296 L35.2174384,190.394296 C34.4271453,190.394296 33.6556281,189.854362 33.5317562,188.947583 C33.4057709,188.016614 33.9249113,187.370711 34.5820665,187.115362 L37.647165,185.924158 C38.3908842,185.635167 38.7559975,184.806803 38.4626552,184.073915 C38.1694754,183.341107 37.3288695,182.981311 36.5852315,183.270301 L33.433569,184.495146 C32.9827044,184.670398 32.4251182,184.545046 32.161931,183.943036 C31.8541207,183.238983 31.5052635,182.581226 31.1190172,181.984262 C28.3049138,183.232896 25.8938818,183.857573 23.4824433,183.857573 C21.0715739,183.857573 18.6603793,183.233296 15.8455443,181.984262 C15.4684015,182.567209 15.1268596,183.208066 14.8244138,183.893456 C14.5124581,184.600473 13.9362586,184.652617 13.5311552,184.495146 L10.3794926,183.270301 C9.63585468,182.981311 8.79524877,183.341107 8.50198768,184.073915 C8.2087266,184.806803 8.57375862,185.635167 9.31747783,185.924158 L12.3825764,187.115362 C13.0637906,187.380083 13.5560271,188.069879 13.4439409,188.867005 C13.2979606,189.909228 12.5062044,190.394216 11.7472044,190.394216 L8.44752956,190.394216 C7.64805172,190.394216 7,191.03283 7,191.820585 C7,192.60834 7.64805172,193.246954 8.44752956,193.246954 L11.7265591,193.246954 C12.5128695,193.246954 13.3181995,193.758294 13.463367,194.699515 C13.6183695,195.700328 13.1505985,196.388922 12.4320764,196.709391 L9.10793596,198.191267 C8.37957882,198.515981 8.05632512,199.361005 8.38575616,200.078675 C8.71543103,200.797146 9.57367488,201.11465 10.3010567,200.790337 L13.81767,199.222677 C14.239436,199.034529 14.7630468,199.07642 15.0550074,199.578629 C16.4897759,202.048583 19.3742685,204.541845 23.4822808,205 C27.5099877,204.550816 30.3614803,202.14534 31.8237217,199.723604 C32.1819261,199.130165 32.6857857,199.016988 33.1468916,199.222677 L36.6635049,200.790337 C37.3899926,201.11441 38.2488054,200.797867 38.5788867,200.078675 C38.9083177,199.360925 38.5849828,198.5159 37.8566256,198.191267 L34.5324852,196.709391 C33.852165,196.405983 33.3414778,195.695201 33.4840443,194.808286 C33.6618867,193.703107 34.4712808,193.247034 35.2379212,193.247034 L35.2379212,193.247034 Z" id="bug-icon" fill-opacity="0.3" fill="#FFFFFF" sketch:type="MSShapeGroup"></path>
            </g>
        </g>
    </g>
</svg>