<svg width="300" height="300" viewBox="0 0 300 300" xmlns="http://www.w3.org/2000/svg"><title>pattern</title><desc>Created with Sketch.</desc><g fill="none"><path d="M26.937-56.348c4.274-3.738 10.96-6.112 14.234-10.45 3.59-4.77 2.65-11.54-2.1-15.157-4.74-3.588-11.49-2.64-15.12 2.12-3.38 4.5-3.73 11.962-6.41 17.13-3.442 6.682-13.496 6.86-24.58.07-7.14 11.84-16.604 24.42-26.033 34.522L7.1 2.31c6.195-10.177 17.955-25.76 26.023-34.517-9.728-9.005-12.135-18.963-6.186-24.14zm306.743 278.63c1.573 1.19 1.89 3.463.68 5.037-1.19 1.61-3.45 1.9-5.02.71-1.593-1.21-1.9-3.458-.7-5.04 1.187-1.603 3.446-1.926 5.04-.717zm-30.644 68.162l-28.706-21.73c3.882-4.38 7.028-8.628 11.308-14.296 1.725-2.29 3.604-2.665 4.654-1.872 3.84 2.906-6.424 12.88-2.327 15.983 4.068 3.07 11.398-11.59 15.825-8.23 3.428 2.59-3.573 9.67-.097 12.29 1.617 1.23 4.197-.654 6.418-1.87 3.84-2.1 7.08.518 3.1 5.79-3.96 5.24-6.12 8.08-10.17 13.925zm-276.1-46.792c4.275-3.738 10.96-6.112 14.235-10.45 3.59-4.77 2.65-11.54-2.1-15.157-4.74-3.588-11.49-2.64-15.12 2.12-3.38 4.5-3.73 11.962-6.41 17.13-3.442 6.682-13.496 6.86-24.58.07-7.14 11.84-16.604 24.42-26.033 34.522L7.1 302.31c6.195-10.177 17.955-25.76 26.023-34.517-9.728-9.005-12.135-18.963-6.186-24.14zm306.744-21.37c1.573 1.19 1.89 3.463.68 5.037-1.19 1.61-3.45 1.9-5.02.71-1.593-1.21-1.9-3.458-.7-5.04 1.187-1.603 3.446-1.926 5.04-.717zm-30.644 68.162l-28.706-21.73c3.882-4.38 7.028-8.628 11.308-14.296 1.725-2.29 3.604-2.665 4.654-1.872 3.84 2.906-6.424 12.88-2.327 15.983 4.068 3.07 11.398-11.59 15.825-8.23 3.428 2.59-3.573 9.67-.097 12.29 1.617 1.23 4.197-.654 6.418-1.87 3.84-2.1 7.08.518 3.1 5.79-3.96 5.24-6.12 8.08-10.17 13.925zM-36.626 122.32l-7.105-6.396c8.41-2.442 21.01 2.114 27.09 7.596l-20.01 22.225-7.776-7-5.513 6.122 7.776 7-1.584 1.76c-7.05 7.828-14.663 2.745-21.544 10.387-5.156 5.725-4.78 14.465.835 19.522 5.615 5.057 14.347 4.516 19.5-1.21 6.88-7.64 1.03-14.68 8.08-22.51l1.584-1.758 7.774 7 5.513-6.122-7.776-7 20.02-22.226c6.09 5.48 11.94 17.532 10.39 26.156l-7.105-6.397L.195 173l16.49-18.312-8.9 2.11c4.36-21.39-7.397-30.86-7.34-45.334-14.386 1.57-25.035-9.13-45.857-2.56l1.17-9.07-16.49 18.312 24.106 4.174zm310.575 87.043c2.49 2.244 2.65 6.135.37 8.674-2.29 2.54-6.18 2.78-8.67.538-2.49-2.244-2.66-6.135-.37-8.674 2.282-2.54 6.17-2.78 8.66-.53zM-39.108 67.288c.014 2.297-1.202 4.426-3.18 5.564l-.01.006c-3.087 1.782-4.132 5.75-2.335 8.86 1.797 3.113 5.755 4.192 8.84 2.41l.01-.006c1.98-1.146 4.426-1.135 6.41.028 14.386 8.423 33.94-12.48 45.7-1.79l5.54-3.2L-9.17 25.407l-5.54 3.2c3.38 15.528-24.5 22.01-24.397 38.68zm333.67-15.773c-.728-1.26-.304-2.873.947-3.595 1.25-.722 2.86-.284 3.588.977.73 1.26.303 2.873-.947 3.595s-2.86.284-3.585-.977zM334.83-7.11c4.21-2.43 9.608-.96 12.058 3.285 2.45 4.244 1.025 9.655-3.184 12.085L334.83-7.11zm-7.893-49.238c4.274-3.738 10.96-6.112 14.234-10.45 3.59-4.77 2.65-11.54-2.1-15.157-4.74-3.588-11.49-2.64-15.12 2.12-3.38 4.5-3.73 11.962-6.41 17.13-3.442 6.682-13.496 6.86-24.58.07-7.14 11.84-16.604 24.42-26.033 34.522L307.1 2.31c6.195-10.177 17.955-25.76 26.023-34.517-9.728-9.005-12.135-18.963-6.186-24.14zm6.743 278.63c1.573 1.19 1.89 3.463.68 5.037-1.19 1.61-3.45 1.9-5.02.71-1.593-1.21-1.9-3.458-.7-5.04 1.187-1.603 3.446-1.926 5.04-.717zm-30.644 68.162l-28.706-21.73c3.882-4.38 7.028-8.628 11.308-14.296 1.725-2.29 3.604-2.665 4.654-1.872 3.84 2.906-6.424 12.88-2.327 15.983 4.068 3.07 11.398-11.59 15.825-8.23 3.428 2.59-3.573 9.67-.097 12.29 1.617 1.23 4.197-.654 6.418-1.87 3.84-2.1 7.08.518 3.1 5.79-3.96 5.24-6.12 8.08-10.17 13.925zM43.37 20.548c-5.616-3.243-7.57-10.374-4.362-15.93C42.214-.934 49.368-2.808 54.984.435c5.617 3.243 7.57 10.375 4.364 15.93-3.207 5.553-10.36 7.427-15.977 4.184zm4.47 315.448c-1.164-.672-2.224-1.458-3.172-2.333l-3.895 6.745c-1.07 1.852-.418 4.23 1.455 5.31 1.872 1.08 4.256.456 5.325-1.395l3.895-6.746c-1.233-.384-2.443-.908-3.607-1.58zm20.323-29.392c1.165.672 2.224 1.458 3.173 2.333l11.25-19.484c1.068-1.85.417-4.228-1.455-5.31-1.87-1.08-4.25-.456-5.32 1.396l-11.25 19.48c1.237.38 2.446.91 3.61 1.58zm10.548 9.914c2.06 1.188 2.78 3.808 1.6 5.84-1.17 2.034-3.8 2.723-5.85 1.535-2.055-1.187-2.773-3.807-1.6-5.84s3.8-2.722 5.86-1.535zm7.23-22.307c-5.615-3.24-12.77-1.36-15.975 4.19-3.207 5.56-1.253 12.69 4.364 15.93s12.77 1.37 15.976-4.182c3.207-5.553 1.254-12.685-4.363-15.93zm-.773-6.01c1.165.678 2.225 1.46 3.173 2.34l3.99-6.913c1.07-1.85.417-4.23-1.455-5.31-1.874-1.08-4.258-.455-5.327 1.396l-3.992 6.913c1.235.384 2.445.91 3.61 1.58zM64.84 317.59c-1.166-.67-2.225-1.456-3.174-2.332L50.51 334.573c-1.068 1.85-.416 4.228 1.456 5.31 1.872 1.08 4.256.456 5.325-1.396l11.16-19.317c-1.23-.38-2.44-.904-3.604-1.58zm88.13-332.473c1.435 3.07.12 6.717-2.934 8.144-3.055 1.43-6.694.1-8.128-2.97-1.433-3.07-.12-6.717 2.935-8.143 3.055-1.426 6.694-.093 8.128 2.978zm7.733 266.606c1.173 2.513.098 5.496-2.4 6.663-2.5 1.167-5.478.076-6.65-2.437-1.174-2.52-.1-5.5 2.4-6.67 2.5-1.168 5.477-.078 6.65 2.435zm27.44 25.922c-4.28 2-9.4.123-11.41-4.182-2.01-4.305-.16-9.433 4.12-11.433 4.283-2 9.402-.123 11.412 4.182 2.01 4.305.16 9.434-4.12 11.433zm-36.895 3.756c-3.65 1.71-8.014.11-9.727-3.56-1.71-3.67-.13-8.04 3.52-9.742 3.65-1.704 8.015-.104 9.73 3.566 1.713 3.67.14 8.04-3.513 9.746zm77.615 64.83l-45.04 21.03c-6.098 2.85-13.11-1.696-13.046-8.456l.304-32.78c.09-9.12-1.87-18.15-5.74-26.424l-2.48-5.31 7.85-3.667c2.64 5.636 8.08 15.565 8.98 30.572l11.03-5.146 27.808 23.02c3.066 2.53 6.815-1.36 3.65-3.96-2.84-2.333-8.18-6.788-22.253-18.355-14.03-11.53-18.77-24.15-21.4-29.78l7.86-3.67 2.48 5.314c3.864 8.27 9.528 15.572 16.575 21.364l25.325 20.81c5.225 4.293 4.208 12.585-1.892 15.433zm15.38-359.575c13.073 4.534 26.34 9.155 30.025 10.435 6.952 2.41 5.287 12.66 5.287 12.66L248.48-1.04l-4.237-12.31zm-28.28 271.4c7.578-2.683 16.068 1.88 18.925 10.174 2.522 7.32-.178 15.14-6.062 18.72-3.356 2.04-2.313 3.815-1.213 7.013l18.417 53.475s-10.252 1.64-12.65-5.314c-1.47-4.273-7.4-21.423-12.48-36.227l-3.708-1.287c-3.196-1.11-4.97-2.157-7.018 1.195-3.593 5.875-11.418 8.556-18.734 6.015-8.285-2.876-12.828-11.38-10.126-18.95 2.7-7.574 11.592-11.25 19.927-8.518 6.21 2.036 7.47 6.547 13.56 8.634l1.91.654-.71-2.088c-2.07-6.1-6.58-7.375-8.6-13.583-2.71-8.346.99-17.226 8.57-19.91zm51.406 100.933c1.37-3.85-1.24-8.273-5.81-9.86-4.58-1.59-9.42.25-10.79 4.097-1.38 3.85 1.23 8.27 5.81 9.86 4.57 1.59 9.41-.25 10.78-4.1zm7.5-81.25c-1.048 1.043-1.05 2.724-.02 3.754 1.03 1.03 2.71 1.02 3.75-.02 1.04-1.042 1.05-2.723.02-3.754-1.03-1.03-2.71-1.022-3.755.02zm-40.62-12.324c1.57 4.58 5.99 7.195 9.84 5.833 3.853-1.36 5.704-6.2 4.126-10.78-1.578-4.575-5.994-7.192-9.847-5.83-3.85 1.366-5.7 6.2-4.125 10.78z" fill-opacity=".3" fill="#fff"/><path d="M0 0h300v300H0z"/><path d="M326.937 243.652c4.274-3.738 10.96-6.112 14.234-10.45 3.59-4.77 2.65-11.54-2.1-15.157-4.74-3.588-11.49-2.64-15.12 2.12-3.38 4.5-3.73 11.962-6.41 17.13-3.442 6.682-13.496 6.86-24.58.07-7.14 11.84-16.604 24.42-26.033 34.522l40.18 30.423c6.196-10.177 17.956-25.76 26.024-34.517-9.73-9.005-12.136-18.963-6.187-24.14zm6.743-21.37c1.573 1.19 1.89 3.463.68 5.037-1.19 1.61-3.45 1.9-5.02.71-1.593-1.21-1.9-3.458-.7-5.04 1.187-1.603 3.446-1.926 5.04-.717zm-30.644 68.162l-28.706-21.73c3.882-4.38 7.028-8.628 11.308-14.296 1.725-2.29 3.604-2.665 4.654-1.872 3.84 2.906-6.424 12.88-2.327 15.983 4.068 3.07 11.398-11.59 15.825-8.23 3.428 2.59-3.573 9.67-.097 12.29 1.617 1.23 4.197-.654 6.418-1.87 3.84-2.1 7.08.518 3.1 5.79-3.96 5.24-6.12 8.08-10.17 13.925zM165.334 135c-6.445 0-11.667 5.203-11.667 11.625 0 5.128 3.35 9.426 7.97 10.974.655 16.64-7.86 18.46-19.434 20.89-6.648 1.39-14.162 3-19.647 8.08v-29.03c4.52-1.61 7.777-5.86 7.777-10.92 0-6.42-5.222-11.628-11.666-11.628C112.222 135 107 140.2 107 146.622c0 5.057 3.256 9.314 7.778 10.915v47.92c-4.522 1.602-7.778 5.86-7.778 10.915 0 6.422 5.222 11.625 11.667 11.625 6.444 0 11.666-5.203 11.666-11.625 0-5.018-3.205-9.252-7.67-10.883 1.05-15.2 9.995-17.08 21.143-19.42 11.813-2.48 26.343-5.59 25.583-28.59 4.43-1.65 7.61-5.87 7.61-10.86 0-6.426-5.23-11.63-11.67-11.63zm-53.666 11.625c0-3.847 3.138-6.974 7-6.974 3.86 0 6.998 3.13 6.998 6.98 0 3.85-3.14 6.977-7 6.977s-6.998-3.127-6.998-6.974zm13.998 69.75c0 3.845-3.14 6.974-7 6.974s-6.998-3.13-6.998-6.98c0-3.848 3.138-6.977 7-6.977 3.86 0 6.998 3.13 6.998 6.974zM43.37 320.548c-5.616-3.243-7.57-10.374-4.362-15.93 3.206-5.553 10.36-7.427 15.976-4.184 5.617 3.243 7.57 10.375 4.364 15.93-3.207 5.553-10.36 7.427-15.977 4.184zm4.47 15.448c-1.164-.672-2.224-1.458-3.172-2.333l-3.895 6.745c-1.07 1.852-.418 4.23 1.455 5.31 1.872 1.08 4.256.456 5.325-1.395l3.895-6.746c-1.233-.384-2.443-.908-3.607-1.58zm20.323-29.392c1.165.672 2.224 1.458 3.173 2.333l11.25-19.484c1.068-1.85.417-4.228-1.455-5.31-1.87-1.08-4.25-.456-5.32 1.396l-11.25 19.48c1.237.38 2.446.91 3.61 1.58zm10.548 9.914c2.06 1.188 2.78 3.808 1.6 5.84-1.17 2.034-3.8 2.723-5.85 1.535-2.055-1.187-2.773-3.807-1.6-5.84s3.8-2.722 5.86-1.535zm7.23-22.307c-5.615-3.24-12.77-1.36-15.975 4.19-3.207 5.56-1.253 12.69 4.364 15.93s12.77 1.37 15.976-4.182c3.207-5.553 1.254-12.685-4.363-15.93zm-.773-6.01c1.165.678 2.225 1.46 3.173 2.34l3.99-6.913c1.07-1.85.417-4.23-1.455-5.31-1.874-1.08-4.258-.455-5.327 1.396l-3.992 6.913c1.235.384 2.445.91 3.61 1.58zM64.84 317.59c-1.166-.67-2.225-1.456-3.174-2.332L50.51 334.573c-1.068 1.85-.416 4.228 1.456 5.31 1.872 1.08 4.256.456 5.325-1.396l11.16-19.317c-1.23-.38-2.44-.904-3.604-1.58zm88.132-32.472c1.435 3.07.12 6.717-2.934 8.144-3.055 1.43-6.694.095-8.128-2.976-1.433-3.07-.12-6.717 2.935-8.143 3.055-1.426 6.694-.093 8.128 2.978zm7.733-33.394c1.173 2.513.098 5.496-2.4 6.663-2.5 1.167-5.478.076-6.65-2.437-1.174-2.516-.1-5.498 2.4-6.665 2.5-1.167 5.477-.077 6.65 2.436zm27.44 25.922c-4.28 2-9.4.123-11.41-4.182-2.01-4.305-.16-9.433 4.12-11.433 4.283-2 9.402-.12 11.412 4.188 2.01 4.305.16 9.434-4.12 11.433zm-36.895 3.756c-3.65 1.708-8.014.108-9.727-3.562-1.71-3.67-.135-8.042 3.515-9.746 3.65-1.704 8.014-.104 9.728 3.566 1.714 3.67.14 8.042-3.512 9.746zm77.615 64.825l-45.04 21.028c-6.098 2.85-13.11-1.695-13.046-8.455l.3-32.78c.09-9.12-1.876-18.15-5.74-26.424l-2.48-5.31 7.85-3.666c2.632 5.638 8.08 15.567 8.98 30.574l11.023-5.146 27.807 23.02c3.067 2.53 6.816-1.36 3.65-3.958-2.84-2.332-8.18-6.787-22.252-18.354-14.03-11.53-18.77-24.15-21.4-29.78l7.86-3.67 2.48 5.314c3.863 8.273 9.527 15.575 16.574 21.367l25.326 20.81c5.226 4.293 4.21 12.585-1.89 15.433zm34.512-223.905l-7.105-6.396c8.415-2.442 21.01 2.114 27.1 7.596l-20.013 22.225-7.78-7-5.514 6.122 7.772 7-1.584 1.76c-7.05 7.822-14.66 2.74-21.544 10.38-5.155 5.726-4.78 14.466.836 19.523 5.615 5.057 14.347 4.516 19.5-1.21 6.88-7.64 1.03-14.68 8.08-22.51l1.584-1.758 7.773 7 5.516-6.123-7.775-7 20.01-22.226c6.09 5.48 11.94 17.532 10.39 26.156l-7.105-6.397L300.19 173l16.49-18.313-8.897 2.11c4.358-21.392-7.398-30.863-7.34-45.336-14.387 1.57-25.036-9.13-45.858-2.56l1.17-9.07-16.49 18.314 24.104 4.174zm10.574 87.043c2.49 2.244 2.66 6.135.37 8.674-2.282 2.54-6.17 2.78-8.66.532-2.493-2.244-2.66-6.135-.37-8.674 2.284-2.54 6.17-2.78 8.663-.535zm-73.13-33.113l7.53 58.816L182 225.354l10.314-27.31-17.64 27.62-18.924 3.15 45.08-52.563zm-5.52 63.146l7.27 17.116 4.18-12.793-11.443-4.32zM260.9 67.29c.013 2.297-1.203 4.426-3.18 5.564l-.01.006c-3.088 1.782-4.133 5.75-2.336 8.86 1.797 3.113 5.755 4.192 8.84 2.41l.01-.006c1.98-1.146 4.426-1.135 6.41.028 14.386 8.423 33.94-12.48 45.7-1.79l5.54-3.2-31.037-53.753-5.54 3.2c3.378 15.522-24.5 22.01-24.398 38.68zm33.67-15.773c-.73-1.26-.305-2.873.946-3.595 1.25-.722 2.86-.284 3.587.977.728 1.26.303 2.87-.947 3.59s-2.86.283-3.587-.978zM334.83-7.11c4.21-2.43 9.608-.96 12.058 3.285 2.45 4.244 1.025 9.655-3.184 12.085L334.83-7.11zM89.403 158.625c1.4.916 1.783 2.798.857 4.204-8.06 12.23-8.736 12.3-7.824 15.24.497 1.6-.4 3.303-2.003 3.81-3.292 1.044-6.63-4.925-3.128-10.41 1.147-1.795 7.887-11.97 7.887-11.97.926-1.404 2.812-1.8 4.21-.884zm-64.77-42.406L6.13 144.29c-.927 1.405-.543 3.287.856 4.203 1.4.916 3.285.52 4.212-.886l18.502-28.07c.926-1.405.542-3.288-.857-4.204-1.4-.917-3.285-.52-4.21.886zm-9.8 44.08c1.398.91 3.284.52 4.21-.89l18.502-28.08c.926-1.407.543-3.29-.857-4.206-2.97-1.943-11.92 3.06-16.59-1.774l-1.71-1.765 5.62-5.43-5.467-5.656c-4.48-4.645-10.74-2.058-17.04-6.12l-12.15 11.75c3.776 6.312 1 12.64 5.49 17.284l5.47 5.655 5.78-5.59 2.764 2.855c1.68 1.74 1.927 4.42.593 6.455l-2.382 3.634c-.926 1.405-.542 3.288.858 4.204 1.4.916 3.284.52 4.21-.886l2.718-4.2c2.635-4.067 2.13-9.392-1.216-12.854l-3.245-3.356 3.715-3.59 2.147 2.22c3.725 3.85 7.64 3.103 12.99 2.98l-15.253 23.15c-.928 1.406-.544 3.29.856 4.205zm36.235-80.25l-2.31 2.23c-1.174 1.132-.966 1.925-1.423 7.782L58.785 79c-5.673.146-6.518-.11-7.717 1.05zm141.375 21.393l22.5-5.197 10.843 46.94-22.5 5.2-10.843-46.943zm28.767.79l13.072 56.588 32.142-7.424-13.072-56.587-32.142 7.425zm33.447-9.838l-.89-3.86c-.33-1.42-1.746-2.306-3.166-1.98l-9.32 2.156c-1.42.326-2.3 1.743-1.97 3.164l.89 3.857 14.465-3.34zm-24.35 80.096l1.78 7.715 16.072-3.712-1.79-7.715-16.07 3.712zM187.65 98.32l1.782 7.714 16.07-3.713-1.78-7.71-16.072 3.715zm11.223 0l1.782 7.714 16.07-3.713-1.78-7.71-16.072 3.715zm-44.435 3.17l16 5.198 4.614 9.238-22.888-7.437 2.274-7zm-21.34 33.58l12.365-38.053c-15.653-5.086-19.655 4.63-30.678 1.048-8.445-2.743-8.492-8.646-13.97-10.684l-9.5 29.25c5.68 1.587 9.07-3.2 17.58-.43h.002c11.056 3.59 8.497 13.777 24.2 18.88zM78.9 58.27l1.366-4.2 15.595 5.068-1.36 4.2L91 83.896zm36.262 197.216l-1.166 7.386L47.8 252.42l1.166-7.386 66.196 10.452zM10.252 201.45s3.385 5.305 2.418 11.43c-1.524 9.652-9.9 8.552-11.67 19.757-.956 6.058.976 12.153 2.655 14.87l34.828 5.5c-1.825-3.77-3.493-9.32-2.61-14.904 1.67-10.582 9.84-10.813 11.328-20.245.97-6.093-2.28-10.938-2.28-10.938-4.4 4.436-9.9 7.478-15.922 8.607-3.02-4.787-12.71-12.34-18.736-14.08zm233.99 85.2c13.074 4.533 26.34 9.154 30.026 10.434 6.953 2.414 5.287 12.663 5.287 12.663L248.48 298.96l-4.237-12.31zm-28.28-28.6c7.58-2.684 16.07 1.88 18.926 10.173 2.522 7.322-.178 15.14-6.062 18.72-3.356 2.04-2.313 3.816-1.213 7.014l18.417 53.474s-10.252 1.64-12.65-5.31c-1.47-4.273-7.4-21.423-12.48-36.23l-3.708-1.285c-3.196-1.11-4.97-2.156-7.018 1.196-3.593 5.875-11.418 8.556-18.734 6.015-8.285-2.876-12.828-11.38-10.126-18.95 2.7-7.574 11.592-11.25 19.927-8.518 6.21 2.037 7.47 6.548 13.56 8.635l1.91.655-.71-2.088c-2.07-6.1-6.58-7.376-8.6-13.584-2.71-8.344.99-17.224 8.57-19.908zm51.407 100.932c1.37-3.85-1.24-8.273-5.81-9.86-4.58-1.59-9.42.25-10.79 4.097-1.38 3.85 1.23 8.27 5.81 9.86 4.57 1.59 9.41-.25 10.78-4.1zm7.5-81.25c-1.048 1.043-1.05 2.724-.02 3.754 1.03 1.03 2.71 1.022 3.75-.02s1.05-2.723.02-3.754c-1.03-1.03-2.71-1.022-3.755.02zm-40.62-12.324c1.57 4.58 5.99 7.195 9.84 5.833 3.853-1.36 5.704-6.2 4.126-10.78-1.578-4.57-5.994-7.19-9.847-5.83-3.85 1.37-5.7 6.2-4.125 10.78zM48.49 66.58l-8.486 6.613 45.166 57.672 8.486-6.612-45.16-57.673zm.536 19.307l-7.85-10.025 3.42-2.664 7.85 10.024-3.42 2.665zm8.054-16.134c3.247 1.442 5.563 4.4 6.18 7.89 1.443-3.237 4.406-5.546 7.905-6.16-3.246-1.44-5.56-4.4-6.18-7.89-1.44 3.238-4.406 5.547-7.905 6.16zM38.174 86.34c-1.913 4.293-5.843 7.355-10.483 8.17 4.31 1.91 7.38 5.833 8.2 10.463 1.918-4.294 5.848-7.356 10.49-8.17C42.07 94.89 39 90.97 38.18 86.338zm29.44-3.5c2.297 1.02 3.936 3.11 4.37 5.58 1.02-2.29 3.12-3.924 5.594-4.358-2.297-1.02-3.935-3.112-4.37-5.58-1.022 2.29-3.118 3.923-5.593 4.356zM81 63.61c-1.165 2.614-3.556 4.477-6.38 4.97 2.62 1.166 4.49 3.553 4.987 6.37 1.165-2.613 3.556-4.477 6.38-4.97-2.62-1.165-4.49-3.55-4.987-6.37zm59-26.023v-4.174l-2.256-.803c-.86-.306-1.552-.962-1.902-1.806-.35-.846-.326-1.8.067-2.627l1.02-2.16-2.95-2.953-2.16 1.027c-.83.4-1.786.42-2.63.07-.845-.35-1.5-1.04-1.807-1.9l-.8-2.26h-4.175l-.803 2.26c-.31.86-.965 1.55-1.81 1.9-.845.35-1.8.328-2.626-.065l-2.16-1.023-2.953 2.95 1.026 2.16c.394.827.42 1.783.07 2.628-.35.844-1.04 1.5-1.904 1.806l-2.257.804v4.174l2.258.806c.86.306 1.553.963 1.9 1.806h.003c.35.847.325 1.8-.068 2.628l-1.027 2.16 2.952 2.952 2.16-1.027c.827-.395 1.783-.42 2.627-.07.844.35 1.5 1.04 1.806 1.9l.802 2.256h4.173l.796-2.24c.31-.87.97-1.568 1.823-1.922.837-.35 1.782-.323 2.6.066l2.175 1.032 2.95-2.953-1.027-2.164c-.393-.826-.417-1.78-.067-2.624.35-.843 1.04-1.5 1.904-1.806l2.253-.804zm-15.5 3.597c-3.14 0-5.684-2.545-5.684-5.684 0-3.14 2.545-5.684 5.684-5.684 3.14 0 5.684 2.545 5.684 5.684 0 3.14-2.545 5.684-5.684 5.684zm105.58 183.868l29.303-10.104c2.008-.692 4.224-.473 6.056.602 3.47 2.036 7.77 2.6 11.87 1.185 5.34-1.84 8.882-6.534 9.52-11.787l-12.14 4.186c-3.28-1.365-5.8-8.688-4.065-11.78l12.14-4.187c-3.738-3.746-9.42-5.257-14.76-3.416-4.103 1.42-7.145 4.52-8.623 8.26-.783 1.98-2.39 3.517-4.4 4.21l-29.303 10.104c-3.517 1.21-5.385 5.047-4.17 8.564 1.21 3.517 5.045 5.385 8.562 4.173zm47.683-8.15c.67-1.378 2.333-1.95 3.712-1.28 1.378.672 1.95 2.334 1.28 3.712-.672 1.378-2.334 1.95-3.712 1.28-1.38-.672-1.952-2.334-1.28-3.712zM16.717 173.936c0-1.07.88-1.936 1.965-1.936 1.294 0 2.234 1.214 1.896 2.443-.127.462-.06.955.19 1.367.55.913 1.488 1.476 2.714 1.482 1.21-.006 2.16-.56 2.715-1.482.248-.412.317-.905.19-1.367-.338-1.227.6-2.443 1.896-2.443 1.085 0 1.964.867 1.964 1.936 0 .928-.66 1.697-1.534 1.89-.442.097-.824.37-1.055.753-.893 1.48.402 2.78 1.456 4.1-3.218 1.66-8.045 1.66-11.263 0 1.07-1.34 2.36-2.61 1.46-4.1-.23-.39-.61-.66-1.05-.76-.874-.19-1.535-.96-1.535-1.89zm18.52 19.31h3.28c.8 0 1.448-.638 1.448-1.425s-.648-1.42-1.448-1.42h-3.3c-.79 0-1.56-.54-1.685-1.444-.126-.93.393-1.577 1.05-1.833l3.065-1.19c.744-.29 1.11-1.12.816-1.85-.294-.734-1.134-1.094-1.878-.805l-3.15 1.227c-.452.176-1.01.05-1.273-.55-.308-.705-.657-1.363-1.043-1.96-2.82 1.25-5.23 1.874-7.64 1.874-2.41 0-4.82-.627-7.64-1.876-.38.583-.72 1.224-1.02 1.91-.31.706-.89.76-1.296.6l-3.15-1.224c-.745-.29-1.586.07-1.88.805-.292.733.073 1.56.816 1.85l3.067 1.19c.68.266 1.172.956 1.06 1.753-.146 1.04-.938 1.526-1.697 1.526h-3.3c-.8 0-1.446.64-1.446 1.427 0 .79.647 1.43 1.447 1.43h3.28c.788 0 1.59.51 1.738 1.45.153 1-.314 1.69-1.03 2.01L9.1 198.2c-.728.326-1.05 1.17-.72 1.89.33.717 1.19 1.035 1.914.71l3.52-1.567c.42-.19.944-.148 1.236.355 1.436 2.47 4.32 4.964 8.428 5.42 4.027-.45 6.88-2.853 8.34-5.274.36-.595.863-.71 1.324-.5l3.517 1.565c.723.323 1.582.01 1.912-.71.328-.72.005-1.565-.723-1.89l-3.325-1.48c-.68-.305-1.19-1.016-1.05-1.9.18-1.108.988-1.56 1.755-1.56z" fill-opacity=".3" fill="#fff"/></g></svg>