<svg width="300" height="300" viewBox="0 0 300 300" xmlns="http://www.w3.org/2000/svg"><title>pattern</title><desc>Created with Sketch.</desc><g fill="none"><path d="M26.937-56.348c4.274-3.738 10.96-6.112 14.234-10.45 3.588-4.77 2.65-11.54-2.1-15.157-4.74-3.588-11.493-2.64-15.12 2.12-3.38 4.5-3.733 11.962-6.414 17.13-3.442 6.682-13.496 6.86-24.578.07-7.14 11.84-16.605 24.42-26.034 34.522L7.1 2.31c6.195-10.177 17.955-25.76 26.023-34.517-9.728-9.005-12.135-18.963-6.186-24.14zm306.743 278.63c1.573 1.19 1.89 3.463.68 5.037-1.19 1.61-3.45 1.9-5.02.71-1.593-1.21-1.9-3.454-.7-5.035 1.187-1.604 3.446-1.927 5.04-.718zm-30.644 68.162l-28.706-21.73c3.882-4.38 7.028-8.628 11.308-14.296 1.725-2.29 3.604-2.665 4.654-1.872 3.84 2.906-6.424 12.88-2.327 15.983 4.068 3.07 11.398-11.59 15.825-8.23 3.428 2.59-3.573 9.67-.097 12.295 1.617 1.23 4.197-.655 6.418-1.87 3.838-2.102 7.076.517 3.1 5.79-3.96 5.24-6.12 8.08-10.17 13.924zM26.937 243.652c4.274-3.738 10.96-6.112 14.234-10.45 3.588-4.77 2.65-11.54-2.1-15.157-4.74-3.588-11.493-2.64-15.12 2.12-3.38 4.5-3.733 11.962-6.414 17.13-3.442 6.682-13.496 6.86-24.578.07-7.14 11.84-16.605 24.42-26.034 34.522L7.1 302.31c6.195-10.177 17.955-25.76 26.023-34.517-9.728-9.005-12.135-18.963-6.186-24.14zm306.743-21.37c1.573 1.19 1.89 3.463.68 5.037-1.19 1.61-3.45 1.9-5.02.71-1.593-1.21-1.9-3.454-.7-5.035 1.187-1.604 3.446-1.927 5.04-.718zm-30.644 68.162l-28.706-21.73c3.882-4.38 7.028-8.628 11.308-14.296 1.725-2.29 3.604-2.665 4.654-1.872 3.84 2.906-6.424 12.88-2.327 15.983 4.068 3.07 11.398-11.59 15.825-8.23 3.428 2.59-3.573 9.67-.097 12.295 1.617 1.23 4.197-.655 6.418-1.87 3.838-2.102 7.076.517 3.1 5.79-3.96 5.24-6.12 8.08-10.17 13.924zM-36.626 122.32l-7.105-6.396c8.41-2.442 21.01 2.114 27.094 7.596l-20.012 22.225-7.775-7-5.513 6.122 7.775 7-1.584 1.76c-7.05 7.828-14.663 2.745-21.544 10.387-5.155 5.725-4.78 14.465.836 19.522 5.615 5.057 14.347 4.516 19.5-1.21 6.88-7.64 1.03-14.68 8.08-22.51l1.584-1.758 7.775 7 5.512-6.122-7.776-7L-9.76 129.71c6.09 5.48 11.94 17.532 10.39 26.156l-7.106-6.397L.194 173l16.49-18.312-8.898 2.11c4.358-21.39-7.398-30.86-7.34-45.334-14.387 1.57-25.036-9.13-45.858-2.56l1.17-9.07-16.49 18.312 24.106 4.174zm310.575 87.043c2.49 2.244 2.653 6.135.37 8.674-2.29 2.54-6.177 2.78-8.67.538-2.49-2.244-2.657-6.135-.37-8.674 2.286-2.54 6.173-2.78 8.665-.533zM-39.104 67.288c.014 2.297-1.202 4.426-3.18 5.564l-.01.006c-3.087 1.782-4.132 5.75-2.335 8.86 1.797 3.113 5.755 4.192 8.84 2.41l.01-.006c1.98-1.146 4.426-1.135 6.41.028 14.386 8.423 33.94-12.48 45.7-1.79l5.54-3.2-31.037-53.753-5.54 3.2c3.378 15.528-24.5 22.01-24.398 38.68zm333.67-15.773c-.728-1.26-.304-2.873.947-3.595 1.25-.722 2.86-.284 3.587.977.73 1.26.304 2.873-.946 3.595s-2.86.284-3.587-.977zM334.83-7.11c4.21-2.43 9.608-.96 12.058 3.285 2.45 4.244 1.025 9.655-3.184 12.085L334.83-7.11zM326.937-56.348c4.274-3.738 10.96-6.112 14.234-10.45 3.588-4.77 2.65-11.54-2.1-15.157-4.74-3.588-11.493-2.64-15.12 2.12-3.38 4.5-3.733 11.962-6.414 17.13-3.442 6.682-13.496 6.86-24.578.07-7.14 11.84-16.605 24.42-26.034 34.522L307.1 2.31c6.195-10.177 17.955-25.76 26.023-34.517-9.728-9.005-12.135-18.963-6.186-24.14zm6.743 278.63c1.573 1.19 1.89 3.463.68 5.037-1.19 1.61-3.45 1.9-5.02.71-1.593-1.21-1.9-3.454-.7-5.035 1.187-1.604 3.446-1.927 5.04-.718zm-30.644 68.162l-28.706-21.73c3.882-4.38 7.028-8.628 11.308-14.296 1.725-2.29 3.604-2.665 4.654-1.872 3.84 2.906-6.424 12.88-2.327 15.983 4.068 3.07 11.398-11.59 15.825-8.23 3.428 2.59-3.573 9.67-.097 12.295 1.617 1.23 4.197-.655 6.418-1.87 3.838-2.102 7.076.517 3.1 5.79-3.96 5.24-6.12 8.08-10.17 13.924zM43.37 20.548c-5.616-3.243-7.57-10.374-4.362-15.93C42.214-.934 49.368-2.808 54.984.435c5.617 3.243 7.57 10.375 4.364 15.93-3.207 5.553-10.36 7.427-15.977 4.184zm4.47 315.448c-1.164-.672-2.224-1.458-3.172-2.333l-3.895 6.745c-1.07 1.852-.418 4.23 1.455 5.31 1.872 1.08 4.256.456 5.325-1.395l3.895-6.746c-1.233-.384-2.443-.908-3.607-1.58zm20.323-29.392c1.165.672 2.224 1.458 3.173 2.333l11.25-19.484c1.068-1.85.417-4.228-1.455-5.31-1.87-1.08-4.252-.456-5.32 1.396l-11.25 19.48c1.233.383 2.442.91 3.607 1.58zm10.548 9.914c2.06 1.188 2.78 3.808 1.6 5.84-1.17 2.034-3.8 2.723-5.853 1.535-2.056-1.187-2.774-3.807-1.6-5.84s3.802-2.722 5.858-1.535zm7.228-22.307c-5.617-3.24-12.77-1.364-15.977 4.19-3.207 5.555-1.253 12.686 4.364 15.93 5.618 3.24 12.77 1.368 15.977-4.186 3.207-5.553 1.254-12.685-4.363-15.93zm-.775-6.01c1.165.674 2.225 1.46 3.173 2.335l3.992-6.912c1.07-1.85.417-4.23-1.455-5.31-1.874-1.08-4.258-.455-5.327 1.396l-3.992 6.912c1.235.384 2.445.91 3.61 1.58zM64.84 317.59c-1.166-.67-2.225-1.456-3.174-2.332L50.51 334.573c-1.068 1.85-.416 4.228 1.456 5.31 1.872 1.08 4.256.456 5.325-1.396L68.45 319.17c-1.233-.38-2.442-.904-3.607-1.58zm88.13-332.473c1.435 3.07.12 6.717-2.934 8.144-3.055 1.43-6.694.097-8.128-2.974-1.433-3.07-.12-6.717 2.935-8.143 3.055-1.426 6.694-.093 8.128 2.978zm7.733 266.606c1.173 2.513.098 5.496-2.4 6.663-2.5 1.167-5.478.076-6.65-2.437-1.174-2.518-.1-5.5 2.4-6.667 2.5-1.167 5.477-.077 6.65 2.436zm27.44 25.922c-4.28 2-9.4.123-11.41-4.182-2.01-4.305-.16-9.433 4.12-11.433 4.283-2 9.402-.123 11.412 4.182 2.01 4.305.16 9.434-4.12 11.433zm-36.895 3.756c-3.65 1.71-8.014.11-9.727-3.56-1.71-3.67-.133-8.042 3.517-9.746 3.65-1.704 8.014-.104 9.728 3.566 1.714 3.67.14 8.04-3.512 9.745zm77.615 64.827l-45.04 21.028c-6.098 2.85-13.11-1.695-13.046-8.455l.304-32.78c.09-9.12-1.872-18.15-5.74-26.425l-2.48-5.31 7.85-3.666c2.636 5.636 8.08 15.565 8.98 30.572l11.027-5.146 27.807 23.02c3.066 2.53 6.815-1.36 3.65-3.958-2.84-2.333-8.18-6.788-22.253-18.355-14.03-11.53-18.77-24.15-21.4-29.78l7.86-3.67 2.48 5.314c3.864 8.272 9.528 15.574 16.575 21.366l25.326 20.81c5.225 4.293 4.208 12.585-1.892 15.433zm15.38-359.576c13.073 4.534 26.34 9.155 30.025 10.435 6.953 2.414 5.287 12.663 5.287 12.663L248.48-1.04l-4.237-12.31zm-28.28 271.4c7.578-2.683 16.068 1.88 18.925 10.174 2.522 7.322-.178 15.14-6.062 18.72-3.356 2.04-2.313 3.816-1.213 7.014l18.417 53.474s-10.252 1.64-12.65-5.314c-1.47-4.274-7.4-21.424-12.48-36.228l-3.708-1.287c-3.196-1.11-4.97-2.156-7.018 1.196-3.593 5.874-11.418 8.555-18.734 6.014-8.285-2.876-12.828-11.38-10.126-18.95 2.7-7.574 11.592-11.25 19.927-8.518 6.208 2.037 7.47 6.548 13.56 8.635l1.908.654-.71-2.088c-2.072-6.1-6.58-7.375-8.598-13.583-2.713-8.344.986-17.224 8.565-19.908zm51.406 100.933c1.37-3.85-1.238-8.273-5.81-9.86-4.58-1.59-9.418.25-10.79 4.097-1.375 3.85 1.23 8.27 5.81 9.86 4.572 1.59 9.412-.25 10.785-4.1zm7.5-81.25c-1.044 1.043-1.05 2.724-.02 3.754 1.03 1.03 2.71 1.022 3.752-.02 1.042-1.042 1.05-2.723.02-3.754-1.03-1.03-2.71-1.022-3.753.02zm-40.62-12.324c1.575 4.58 5.992 7.194 9.844 5.832 3.853-1.36 5.704-6.2 4.126-10.78-1.577-4.575-5.993-7.192-9.846-5.83-3.85 1.366-5.7 6.2-4.125 10.78z" fill-opacity=".3" fill="#fff"/><path d="M0 0h300v300H0z"/><path d="M326.937 243.652c4.274-3.738 10.96-6.112 14.234-10.45 3.588-4.77 2.65-11.54-2.1-15.157-4.74-3.588-11.493-2.64-15.12 2.12-3.38 4.5-3.733 11.962-6.414 17.13-3.442 6.682-13.496 6.86-24.578.07-7.14 11.84-16.605 24.42-26.034 34.522l40.18 30.423c6.196-10.177 17.956-25.76 26.024-34.517-9.728-9.005-12.135-18.963-6.186-24.14zm6.743-21.37c1.573 1.19 1.89 3.463.68 5.037-1.19 1.61-3.45 1.9-5.02.71-1.593-1.21-1.9-3.454-.7-5.035 1.187-1.604 3.446-1.927 5.04-.718zm-30.644 68.162l-28.706-21.73c3.882-4.38 7.028-8.628 11.308-14.296 1.725-2.29 3.604-2.665 4.654-1.872 3.84 2.906-6.424 12.88-2.327 15.983 4.068 3.07 11.398-11.59 15.825-8.23 3.428 2.59-3.573 9.67-.097 12.295 1.617 1.23 4.197-.655 6.418-1.87 3.838-2.102 7.076.517 3.1 5.79-3.96 5.24-6.12 8.08-10.17 13.924zM165.334 135c-6.445 0-11.667 5.203-11.667 11.625 0 5.128 3.35 9.426 7.97 10.974.655 16.64-7.86 18.46-19.434 20.89-6.648 1.392-14.162 3-19.647 8.08v-29.03c4.52-1.606 7.777-5.86 7.777-10.92 0-6.42-5.222-11.624-11.666-11.624C112.222 135 107 140.2 107 146.623c0 5.056 3.256 9.313 7.778 10.914v47.92c-4.522 1.602-7.778 5.86-7.778 10.915 0 6.422 5.222 11.625 11.667 11.625 6.444 0 11.666-5.203 11.666-11.625 0-5.018-3.205-9.252-7.67-10.883 1.05-15.2 9.995-17.08 21.143-19.42 11.813-2.48 26.343-5.59 25.583-28.59 4.43-1.646 7.61-5.867 7.61-10.86 0-6.422-5.226-11.625-11.67-11.625zm-53.666 11.625c0-3.847 3.138-6.974 7-6.974 3.86 0 6.998 3.13 6.998 6.98 0 3.846-3.14 6.973-7 6.973s-6.998-3.127-6.998-6.974zm13.998 69.75c0 3.845-3.14 6.974-7 6.974s-6.998-3.13-6.998-6.98c0-3.844 3.138-6.973 7-6.973 3.86 0 6.998 3.13 6.998 6.974zM43.37 320.548c-5.616-3.243-7.57-10.374-4.362-15.93 3.206-5.553 10.36-7.427 15.976-4.184 5.617 3.243 7.57 10.375 4.364 15.93-3.207 5.553-10.36 7.427-15.977 4.184zm4.47 15.448c-1.164-.672-2.224-1.458-3.172-2.333l-3.895 6.745c-1.07 1.852-.418 4.23 1.455 5.31 1.872 1.08 4.256.456 5.325-1.395l3.895-6.746c-1.233-.384-2.443-.908-3.607-1.58zm20.323-29.392c1.165.672 2.224 1.458 3.173 2.333l11.25-19.484c1.068-1.85.417-4.228-1.455-5.31-1.87-1.08-4.252-.456-5.32 1.396l-11.25 19.48c1.233.383 2.442.91 3.607 1.58zm10.548 9.914c2.06 1.188 2.78 3.808 1.6 5.84-1.17 2.034-3.8 2.723-5.853 1.535-2.056-1.187-2.774-3.807-1.6-5.84s3.802-2.722 5.858-1.535zm7.228-22.307c-5.617-3.24-12.77-1.364-15.977 4.19-3.207 5.555-1.253 12.686 4.364 15.93 5.618 3.24 12.77 1.368 15.977-4.186 3.207-5.553 1.254-12.685-4.363-15.93zm-.775-6.01c1.165.674 2.225 1.46 3.173 2.335l3.992-6.912c1.07-1.85.417-4.23-1.455-5.31-1.874-1.08-4.258-.455-5.327 1.396l-3.992 6.912c1.235.384 2.445.91 3.61 1.58zM64.84 317.59c-1.166-.67-2.225-1.456-3.174-2.332L50.51 334.573c-1.068 1.85-.416 4.228 1.456 5.31 1.872 1.08 4.256.456 5.325-1.396L68.45 319.17c-1.233-.38-2.442-.904-3.607-1.58zm88.132-32.472c1.435 3.07.12 6.717-2.934 8.144-3.055 1.43-6.694.095-8.128-2.976-1.433-3.07-.12-6.717 2.935-8.143 3.055-1.426 6.694-.093 8.128 2.978zm7.733-33.394c1.173 2.513.098 5.496-2.4 6.663-2.5 1.167-5.478.076-6.65-2.437-1.174-2.516-.1-5.498 2.4-6.665 2.5-1.167 5.477-.077 6.65 2.436zm27.44 25.922c-4.28 2-9.4.123-11.41-4.182-2.01-4.305-.16-9.433 4.12-11.433 4.283-2 9.402-.12 11.412 4.184 2.01 4.305.16 9.434-4.12 11.433zm-36.895 3.756c-3.65 1.708-8.014.108-9.727-3.562-1.71-3.67-.135-8.042 3.515-9.746 3.65-1.704 8.014-.104 9.728 3.566 1.714 3.67.14 8.042-3.512 9.746zm77.615 64.825l-45.04 21.028c-6.098 2.85-13.11-1.695-13.046-8.455l.302-32.78c.088-9.12-1.874-18.15-5.74-26.424l-2.48-5.31 7.85-3.666c2.634 5.638 8.08 15.567 8.98 30.574l11.025-5.146 27.807 23.02c3.066 2.53 6.815-1.36 3.65-3.958-2.84-2.332-8.18-6.787-22.253-18.354-14.03-11.53-18.77-24.15-21.4-29.78l7.86-3.67 2.48 5.314c3.864 8.273 9.528 15.575 16.575 21.367l25.326 20.81c5.225 4.293 4.208 12.585-1.892 15.433zm34.512-223.905l-7.105-6.396c8.415-2.442 21.01 2.114 27.1 7.596l-20.013 22.225-7.777-7-5.513 6.122 7.773 7-1.583 1.76c-7.05 7.826-14.66 2.743-21.543 10.385-5.155 5.725-4.78 14.465.836 19.522 5.616 5.057 14.348 4.516 19.502-1.21 6.88-7.64 1.03-14.68 8.08-22.51l1.583-1.758 7.773 7 5.516-6.123-7.775-7 20.01-22.226c6.09 5.48 11.94 17.533 10.39 26.157l-7.106-6.397 6.67 23.534 16.49-18.312-8.898 2.11c4.358-21.393-7.398-30.864-7.34-45.337-14.387 1.57-25.036-9.13-45.858-2.56l1.17-9.07-16.49 18.312 24.105 4.174zm10.574 87.043c2.49 2.244 2.657 6.135.37 8.674-2.286 2.54-6.173 2.78-8.665.536-2.492-2.244-2.658-6.135-.37-8.674 2.285-2.54 6.172-2.78 8.664-.535zm-73.13-33.113l7.53 58.816-26.356-9.714 10.314-27.31-17.64 27.62-18.924 3.15 45.08-52.563zm-5.52 63.146l7.27 17.116 4.176-12.793-11.443-4.324zM260.9 67.29c.013 2.297-1.203 4.426-3.18 5.564l-.01.006c-3.088 1.782-4.133 5.75-2.336 8.86 1.797 3.113 5.755 4.192 8.84 2.41l.01-.006c1.98-1.146 4.426-1.135 6.41.028 14.386 8.423 33.94-12.48 45.7-1.79l5.54-3.2-31.037-53.753-5.54 3.2c3.378 15.526-24.5 22.01-24.398 38.68zm33.67-15.773c-.73-1.26-.305-2.873.946-3.595 1.25-.722 2.86-.284 3.587.977.728 1.26.303 2.87-.947 3.593s-2.86.284-3.587-.977zM334.83-7.11c4.21-2.43 9.608-.96 12.058 3.285 2.45 4.244 1.025 9.655-3.184 12.085L334.83-7.11zM89.403 158.625c1.4.916 1.783 2.798.857 4.204-8.06 12.23-8.736 12.304-7.824 15.24.497 1.6-.4 3.307-2.003 3.815-3.292 1.043-6.63-4.926-3.128-10.41 1.147-1.796 7.887-11.97 7.887-11.97.926-1.405 2.812-1.802 4.21-.885zm-64.77-42.406L6.13 144.29c-.927 1.405-.543 3.287.856 4.203 1.4.916 3.285.52 4.212-.886L29.7 119.537c.926-1.405.542-3.288-.857-4.204-1.4-.917-3.285-.52-4.21.886zm-9.8 44.08c1.398.91 3.284.52 4.21-.89l18.502-28.078c.926-1.405.543-3.288-.857-4.204-2.97-1.943-11.92 3.06-16.59-1.774l-1.71-1.766 5.62-5.43-5.467-5.656c-4.484-4.644-10.74-2.057-17.04-6.12l-12.152 11.75c3.774 6.313 1 12.64 5.49 17.285l5.468 5.653 5.78-5.588 2.763 2.856c1.68 1.74 1.926 4.42.592 6.455l-2.382 3.632c-.927 1.405-.543 3.288.857 4.204 1.4.916 3.284.52 4.21-.886l2.718-4.2c2.634-4.068 2.13-9.393-1.217-12.855l-3.244-3.356 3.716-3.59 2.146 2.22c3.724 3.85 7.64 3.102 12.99 2.98l-15.254 23.15c-.927 1.405-.543 3.288.857 4.204zm36.235-80.25l-2.31 2.233c-1.174 1.133-.966 1.926-1.423 7.783L58.785 79c-5.673.146-6.518-.11-7.717 1.05zm141.375 21.397l22.5-5.197 10.843 46.94-22.5 5.2-10.843-46.942zm28.767.79l13.072 56.588 32.142-7.425-13.072-56.586-32.142 7.425zm33.447-9.838l-.89-3.86c-.33-1.42-1.746-2.306-3.166-1.98l-9.32 2.156c-1.42.325-2.302 1.742-1.974 3.163l.89 3.857 14.465-3.34zm-24.35 80.096l1.78 7.714 16.072-3.712-1.787-7.715-16.07 3.712zM187.65 98.32l1.782 7.714 16.07-3.713-1.78-7.712-16.072 3.713zm11.223 0l1.782 7.714 16.07-3.713-1.78-7.712-16.072 3.713zm-44.435 3.17l16 5.198 4.614 9.238-22.888-7.437 2.274-7zm-21.34 33.58l12.365-38.053c-15.653-5.086-19.655 4.63-30.678 1.048-8.445-2.743-8.492-8.646-13.97-10.684l-9.5 29.248c5.68 1.585 9.07-3.198 17.58-.433l.002.002c11.056 3.592 8.497 13.777 24.2 18.88zM78.9 58.27l1.366-4.2 15.595 5.068-1.36 4.2L91 83.896zm36.262 197.216l-1.166 7.386L47.8 252.42l1.166-7.386 66.196 10.452zM10.252 201.45s3.385 5.305 2.418 11.43c-1.524 9.652-9.9 8.552-11.67 19.757-.956 6.058.976 12.153 2.655 14.87l34.828 5.5c-1.825-3.77-3.493-9.32-2.61-14.904 1.67-10.582 9.84-10.813 11.328-20.245.967-6.093-2.28-10.938-2.28-10.938-4.403 4.436-9.904 7.478-15.926 8.607-3.02-4.787-12.71-12.34-18.736-14.08zm233.99 85.2c13.074 4.533 26.34 9.154 30.026 10.434 6.953 2.414 5.287 12.663 5.287 12.663L248.48 298.96l-4.237-12.31zm-28.28-28.6c7.58-2.684 16.07 1.88 18.926 10.173 2.522 7.322-.178 15.14-6.062 18.72-3.356 2.04-2.313 3.816-1.213 7.014l18.417 53.474s-10.252 1.64-12.65-5.313c-1.47-4.274-7.4-21.424-12.48-36.228l-3.708-1.288c-3.196-1.11-4.97-2.156-7.018 1.196-3.593 5.875-11.418 8.556-18.734 6.015-8.285-2.876-12.828-11.38-10.126-18.95 2.7-7.574 11.592-11.25 19.927-8.518 6.208 2.037 7.47 6.548 13.56 8.635l1.908.653-.71-2.088c-2.072-6.1-6.58-7.375-8.598-13.583-2.713-8.344.986-17.224 8.565-19.908zm51.407 100.932c1.37-3.85-1.238-8.273-5.81-9.86-4.58-1.59-9.418.25-10.79 4.097-1.375 3.85 1.23 8.27 5.81 9.86 4.572 1.59 9.412-.25 10.785-4.1zm7.5-81.25c-1.044 1.043-1.05 2.724-.02 3.754 1.03 1.03 2.71 1.022 3.752-.02 1.042-1.042 1.05-2.723.02-3.754-1.03-1.03-2.71-1.022-3.753.02zm-40.62-12.324c1.575 4.58 5.992 7.195 9.844 5.833 3.853-1.36 5.704-6.2 4.126-10.78-1.577-4.574-5.993-7.19-9.846-5.83-3.85 1.367-5.7 6.2-4.125 10.78zM48.494 66.58l-8.486 6.613 45.166 57.672 8.486-6.612L48.498 66.58zm.536 19.307l-7.85-10.025 3.42-2.664 7.85 10.024-3.42 2.665zm8.055-16.134c3.247 1.442 5.563 4.4 6.18 7.89 1.443-3.237 4.406-5.546 7.905-6.16-3.245-1.44-5.56-4.4-6.18-7.89-1.44 3.238-4.405 5.547-7.904 6.16zM38.175 86.34c-1.914 4.293-5.844 7.355-10.484 8.17 4.31 1.91 7.38 5.833 8.2 10.463 1.914-4.294 5.844-7.356 10.485-8.17-4.305-1.912-7.377-5.834-8.194-10.465zm29.44-3.5c2.296 1.02 3.935 3.11 4.37 5.58 1.02-2.29 3.118-3.924 5.593-4.358-2.297-1.02-3.935-3.112-4.37-5.58-1.022 2.29-3.118 3.923-5.593 4.356zM81 63.61c-1.165 2.614-3.556 4.477-6.38 4.97 2.62 1.166 4.49 3.553 4.987 6.37 1.165-2.613 3.556-4.477 6.38-4.97-2.62-1.165-4.49-3.55-4.987-6.37zm59-26.023v-4.174l-2.256-.803c-.86-.306-1.552-.962-1.902-1.806-.35-.846-.326-1.8.067-2.627l1.022-2.16-2.952-2.953-2.16 1.027c-.826.398-1.782.42-2.626.07-.845-.35-1.5-1.04-1.807-1.9l-.8-2.26h-4.175l-.803 2.257c-.31.86-.965 1.552-1.81 1.902-.845.35-1.8.325-2.626-.068l-2.16-1.023-2.953 2.95 1.028 2.16c.394.827.42 1.783.07 2.628-.35.844-1.04 1.5-1.904 1.806l-2.256.804v4.174l2.258.804c.86.306 1.552.963 1.9 1.806h.002c.35.846.325 1.8-.068 2.627l-1.026 2.16 2.952 2.952 2.16-1.027c.827-.394 1.783-.418 2.627-.068.845.35 1.5 1.04 1.807 1.902l.803 2.255h4.174l.795-2.24c.308-.87.97-1.568 1.822-1.922.837-.35 1.782-.323 2.6.066l2.175 1.033 2.95-2.953-1.027-2.162c-.393-.826-.417-1.78-.067-2.624.35-.844 1.04-1.5 1.903-1.807l2.253-.804zm-15.5 3.597c-3.14 0-5.684-2.545-5.684-5.684 0-3.14 2.545-5.684 5.684-5.684 3.14 0 5.684 2.545 5.684 5.684 0 3.14-2.545 5.684-5.684 5.684zm105.58 183.868l29.303-10.104c2.008-.692 4.224-.473 6.056.602 3.47 2.036 7.77 2.6 11.872 1.185 5.34-1.84 8.884-6.534 9.52-11.787l-12.14 4.186c-3.277-1.365-5.802-8.688-4.063-11.78l12.14-4.187c-3.738-3.746-9.42-5.257-14.76-3.416-4.103 1.42-7.145 4.517-8.623 8.26-.783 1.977-2.39 3.513-4.4 4.206l-29.303 10.104c-3.517 1.21-5.385 5.046-4.172 8.563 1.213 3.517 5.047 5.385 8.564 4.173zm47.683-8.15c.67-1.378 2.333-1.95 3.712-1.28 1.378.672 1.95 2.334 1.28 3.712-.672 1.378-2.334 1.95-3.712 1.28-1.38-.672-1.952-2.334-1.28-3.712zM16.717 173.936c0-1.07.88-1.936 1.965-1.936 1.294 0 2.234 1.214 1.896 2.443-.127.462-.06.955.19 1.367.55.913 1.488 1.476 2.714 1.482 1.21-.006 2.16-.56 2.715-1.482.248-.412.317-.905.19-1.367-.338-1.227.6-2.443 1.896-2.443 1.085 0 1.964.867 1.964 1.936 0 .928-.66 1.697-1.534 1.89-.442.097-.824.37-1.055.753-.893 1.48.402 2.78 1.456 4.1-3.218 1.66-8.045 1.66-11.263 0 1.07-1.34 2.36-2.61 1.46-4.1-.23-.39-.612-.66-1.054-.76-.874-.19-1.535-.96-1.535-1.89zm18.52 19.31h3.28c.8 0 1.448-.638 1.448-1.425s-.648-1.422-1.448-1.422h-3.3c-.79 0-1.56-.54-1.685-1.446-.126-.93.393-1.577 1.05-1.833l3.065-1.19c.744-.29 1.11-1.12.816-1.85-.294-.735-1.134-1.095-1.878-.806l-3.15 1.227c-.452.175-1.01.05-1.273-.552-.308-.704-.657-1.362-1.043-1.96-2.82 1.25-5.23 1.875-7.64 1.875-2.41 0-4.82-.626-7.638-1.875-.378.583-.72 1.224-1.022 1.91-.31.706-.887.76-1.292.6l-3.15-1.224c-.745-.29-1.586.07-1.88.806-.292.732.073 1.56.816 1.85l3.066 1.19c.68.265 1.173.955 1.06 1.752-.145 1.04-.937 1.526-1.696 1.526h-3.3c-.8 0-1.447.64-1.447 1.427 0 .788.647 1.427 1.447 1.427h3.28c.785 0 1.59.51 1.735 1.452.153 1-.314 1.69-1.03 2.01l-3.327 1.48c-.728.326-1.052 1.17-.722 1.89.33.717 1.19 1.035 1.916.71l3.52-1.567c.42-.188.944-.147 1.236.356 1.435 2.47 4.32 4.964 8.427 5.42 4.027-.45 6.88-2.853 8.34-5.274.36-.596.863-.71 1.324-.5l3.517 1.564c.727.325 1.586.01 1.916-.71.328-.72.005-1.563-.723-1.89l-3.325-1.48c-.68-.303-1.19-1.014-1.05-1.9.18-1.106.988-1.56 1.755-1.56z" fill-opacity=".3" fill="#fff"/></g></svg>