<?xml version="1.0" encoding="UTF-8" standalone="no"?>
<svg width="460px" height="260px" viewBox="0 0 460 260" version="1.1" xmlns="http://www.w3.org/2000/svg" xmlns:xlink="http://www.w3.org/1999/xlink" xmlns:sketch="http://www.bohemiancoding.com/sketch/ns">
    <!-- Generator: Sketch 3.0.4 (8053) - http://www.bohemiancoding.com/sketch -->
    <title>project--yak</title>
    <desc>Created with Sketch.</desc>
    <defs></defs>
    <g id="Page-1" stroke="none" stroke-width="1" fill="none" fill-rule="evenodd" sketch:type="MSPage">
        <g id="project--yak" sketch:type="MSArtboardGroup">
            <rect id="Rectangle-14" stroke="#D5D9DE" stroke-width="10" fill="#FFFFFF" sketch:type="MSShapeGroup" x="0" y="0" width="460" height="260"></rect>
            <path d="M305.826088,188.458391 C307.44105,190.775101 309.909301,193.303145 312.959885,194.953555 C315.571518,166.089437 314.755488,150.551746 310.324705,136.967878 C317.807993,146.937966 323.162319,163.475185 322.037671,181.272342 C318.25526,182.792477 318.25526,192.673354 327.711287,201.794164 C334.519626,186.972848 330.737215,181.272342 326.576565,180.512274 C327.711287,154.669985 318.633501,123.127178 293.311986,105.686486 C267.99047,88.2457928 217.643134,91.2043452 217.643134,91.2043452 C217.643134,91.2043452 217.800355,89.6821261 217.631358,87.2657873 C219.672659,87.0117522 223.56463,86.3038451 227.855643,84.3637379 C235.420465,80.9434342 236.555188,75.6229618 236.933429,70.6825232 C237.31167,65.7420845 237.31167,61.5617134 236.555188,56.241241 C235.96831,52.113624 233.907501,47.500465 227.855643,40.6598576 C228.233884,52.4409036 228.612126,59.6615447 223.694992,64.2219496 C220.280011,67.3891801 213.826525,68.182504 210.037393,68.3655517 L210.037393,68.3655517 C203.016644,60.292709 189.653433,53.683502 164.311143,55.8612073 C165.445866,60.421612 168.850036,61.5617134 168.850036,61.5617134 C168.850036,61.5617134 163.289762,60.7636235 153.719919,68.2931887 L153.719919,68.2931887 C149.88016,68.005705 144.321234,67.0810956 141.238438,64.2219496 C136.321304,59.6615447 136.699545,52.4409036 137.077786,40.6598576 C131.025929,47.500465 128.965119,52.113624 128.378241,56.241241 C127.621759,61.5617134 127.621759,65.7420845 128,70.6825232 C128.378241,75.6229618 129.512964,80.9434342 137.077786,84.3637379 C137.578791,84.5902585 138.074356,84.7999817 138.562171,84.9941461 C134.104903,91.9414167 132.894996,96.4918377 128,98.0449526 C133.295375,101.085221 138.968991,99.1850538 138.968991,99.1850538 C138.968991,99.1850538 139.725473,117.046639 134.808339,118.566775 C136.354109,119.522526 139.768859,120.515834 144.194779,121.027213 C143.145702,128.654344 141.330345,149.482968 151.450947,156.570149 C152.816725,157.526566 154.35459,158.337382 156.011026,159.02251 L156.011026,159.02251 C152.885536,174.008234 151.869831,183.77144 152.963911,199.893995 C155.869581,198.59646 159.3264,196.191415 161.923049,192.915176 L161.923049,192.915176 C160.962916,201.544361 161.128048,210.657654 162.798179,212.815142 C166.131337,217.120942 178.617544,217.527249 184.736161,213.57521 C187.396228,211.857062 187.861023,203.425985 187.664833,195.459859 C188.990362,197.739959 190.705086,199.378146 192.558078,200.979505 C192.073716,208.154322 192.418508,214.812841 193.813947,216.61548 C197.147105,220.92128 209.633312,221.327586 215.751929,217.375547 C218.469158,215.620478 218.895754,206.860874 218.667053,198.747363 L218.667053,198.747363 C221.465925,200.92605 224.837466,202.672715 228.612126,202.93427 C227.477402,199.894 227.477402,196.093663 229.368608,191.91328 C229.951339,193.81346 233.151018,206.354574 244.876492,206.354574 C244.876492,199.29877 247.151291,196.573537 249.47802,194.862613 L249.47802,194.862613 C248.748099,202.872784 249.005291,210.819536 250.550108,212.815142 C253.883266,217.120942 266.369473,217.527249 272.48809,213.57521 C275.003247,211.95066 275.555797,204.324648 275.442692,196.764729 C276.856865,198.463844 278.291567,199.760915 280.296102,201.188817 C279.832455,208.28345 280.184016,214.830383 281.565876,216.61548 C284.899034,220.92128 297.385241,221.327586 303.503858,217.375547 C307.509337,214.788392 306.537307,196.980498 305.826088,188.458391 Z M202.432183,136.804067 C201.010952,145.365814 197.632429,153.320364 189.602048,157.432974 L189.602048,157.432974 C180.675233,160.538395 158.413082,158.279501 153.720393,154.289946 C150.457973,151.516354 147.528562,148.240882 146.920653,138.691761 C165.61312,126.583072 196.008334,134.851087 202.432183,136.804067 L202.432183,136.804067 Z M202.743096,134.692918 C204.128741,123.995688 202.851519,112.773161 204.026456,107.165762 C196.083395,117.806707 180.197268,120.466943 180.197268,120.466943 C180.197268,120.466943 180.95375,115.14647 178.684304,112.106201 C169.505917,119.944804 157.125895,121.769374 147.708833,121.313165 C147.094002,126.615566 146.815267,130.990891 146.805646,134.633557 C151.612352,131.469902 168.98782,122.838739 202.743096,134.692918 L202.743096,134.692918 Z M148.756964,72.6498346 C148.39826,72.9966163 148.035431,73.3541586 147.668536,73.7227931 C145.415373,75.9866353 143.567608,78.1183736 142.017083,80.1086398 C140.263829,79.7700383 138.478026,79.3027215 137.077786,78.6632318 C132.917134,76.7630632 131.782411,74.1028269 131.40417,70.3024894 C130.86823,64.9176961 131.025929,53.5810048 134.430098,48.6405662 C134.051857,57.3813422 135.18658,65.7420845 140.103714,68.7823545 C142.82095,70.4624242 145.769195,71.7943384 148.756964,72.6498346 L148.756964,72.6498346 Z M213.509187,73.2825984 C214.988595,75.9004698 215.956308,78.5194905 216.585073,80.9152214 C218.279106,80.7989891 224.306148,80.2842859 227.855643,78.6632318 C232.016295,76.7630632 233.151018,74.1028269 233.529259,70.3024894 C234.065199,64.9176961 233.907501,53.5810048 230.503331,48.6405662 C230.881572,57.3813422 229.746849,65.7420845 224.829715,68.7823545 C221.30554,70.961355 217.392778,72.554712 213.509187,73.2825984 L213.509187,73.2825984 Z M162.798179,139.088597 C160.528732,139.848664 159.77225,144.789103 162.041697,145.54917 C164.311143,146.309237 165.824107,145.169137 165.824107,142.888934 C165.824107,140.608731 165.067625,138.328529 162.798179,139.088597 Z M176.414857,139.088597 C174.145411,139.848664 173.388929,144.789103 175.658375,145.54917 C177.927822,146.309237 179.440786,145.169137 179.440786,142.888934 C179.440786,140.608731 178.684304,138.328529 176.414857,139.088597 Z" id="Path-2" fill="#382622" sketch:type="MSShapeGroup"></path>
        </g>
    </g>
</svg>