<?xml version="1.0" encoding="UTF-8" standalone="no"?>
<svg width="460px" height="260px" viewBox="0 0 460 260" version="1.1" xmlns="http://www.w3.org/2000/svg" xmlns:xlink="http://www.w3.org/1999/xlink" xmlns:sketch="http://www.bohemiancoding.com/sketch/ns">
    <!-- Generator: Sketch 3.0.4 (8053) - http://www.bohemiancoding.com/sketch -->
    <title>project--nyxie</title>
    <desc>Created with Sketch.</desc>
    <defs></defs>
    <g id="Page-1" stroke="none" stroke-width="1" fill="none" fill-rule="evenodd" sketch:type="MSPage">
        <g id="project--nyxie" sketch:type="MSArtboardGroup">
            <rect id="Rectangle-15" fill="#AFBACC" sketch:type="MSShapeGroup" x="0" y="0" width="460" height="260"></rect>
            <path d="M318.200729,165.604855 C328.316838,142.667341 325.787941,129.829595 345.176672,119.518613 C364.566445,109.20711 367.342813,80.9559538 367.342813,76.7472832 C367.342813,72.5391329 364.655534,72.170289 362.45851,74.6944509 C362.45851,74.6944509 351.285828,89.6354913 328.948281,85.4263006 C319.548015,83.6549133 317.394754,75.4846821 303.64316,77.536474 C293.705231,79.0191329 287.249094,84.9175145 295.018653,85.6375145 C323.401275,88.2688439 313.588905,123.188844 290.434962,127.699769 C280.631448,129.610058 271.616718,127.967688 263.89509,124.531561 C289.425279,107.470058 268.174,59.4672832 262.983874,73.0109827 C256.971622,88.6995954 250.883305,96.2242197 238.335725,100.245087 C230.21137,82.6076879 211.123252,41.8043931 170.658817,41.8017919 C103.639922,41.7976301 86.6232691,93.5554335 96.9128683,131.934451 C105.658246,164.554509 129.84167,212.444393 209.241948,220.743121 C277.719622,227.899422 308.085141,188.544971 318.200729,165.604855 L318.200729,165.604855 Z M235.728679,197.195896 C271.737588,176.403815 255.434695,129.215202 247.388489,141.195087 C229.579406,167.710751 192.041385,174.063815 184.010288,168.975954 C169.394368,159.715318 119.046708,106.475376 162.056712,71.9882081 C195.948828,44.8118497 222.503288,77.2212139 234.320958,100.368902 C248.963969,129.046647 283.637053,141.194566 301.972338,126.673353 C315.890649,115.650173 331.613156,117.096416 321.993553,144.560983 C312.70426,171.079769 286.572324,213.588382 235.728679,197.195896 L235.728679,197.195896 Z" id="Wal_1_" fill="#92A0B5" sketch:type="MSShapeGroup"></path>
            <path d="M318.200729,163.604855 C328.316838,140.667341 325.787941,127.829595 345.176672,117.518613 C364.566445,107.20711 367.342813,78.9559538 367.342813,74.7472832 C367.342813,70.5391329 364.655534,70.170289 362.45851,72.6944509 C362.45851,72.6944509 351.285828,87.6354913 328.948281,83.4263006 C319.548015,81.6549133 317.394754,73.4846821 303.64316,75.536474 C293.705231,77.0191329 287.249094,82.9175145 295.018653,83.6375145 C323.401275,86.2688439 313.588905,121.188844 290.434962,125.699769 C280.631448,127.610058 271.616718,125.967688 263.89509,122.531561 C289.425279,105.470058 268.174,57.4672832 262.983874,71.0109827 C256.971622,86.6995954 250.883305,94.2242197 238.335725,98.2450867 C230.21137,80.6076879 211.123252,39.8043931 170.658817,39.8017919 C103.639922,39.7976301 86.6232691,91.5554335 96.9128683,129.934451 C105.658246,162.554509 129.84167,210.444393 209.241948,218.743121 C277.719622,225.899422 308.085141,186.544971 318.200729,163.604855 L318.200729,163.604855 Z M235.728679,195.195896 C271.737588,174.403815 255.434695,127.215202 247.388489,139.195087 C229.579406,165.710751 192.041385,172.063815 184.010288,166.975954 C169.394368,157.715318 119.046708,104.475376 162.056712,69.9882081 C195.948828,42.8118497 222.503288,75.2212139 234.320958,98.3689017 C248.963969,127.046647 283.637053,139.194566 301.972338,124.673353 C315.890649,113.650173 331.613156,115.096416 321.993553,142.560983 C312.70426,169.079769 286.572324,211.588382 235.728679,195.195896 L235.728679,195.195896 Z" id="Wal_1_" fill="#FFFFFF" sketch:type="MSShapeGroup"></path>
        </g>
    </g>
</svg>