<?xml version="1.0" encoding="UTF-8" standalone="no"?>
<svg width="460px" height="260px" viewBox="0 0 460 260" version="1.1" xmlns="http://www.w3.org/2000/svg" xmlns:xlink="http://www.w3.org/1999/xlink" xmlns:sketch="http://www.bohemiancoding.com/sketch/ns">
    <!-- Generator: Sketch 3.0.4 (8053) - http://www.bohemiancoding.com/sketch -->
    <title>project--lesetagebuch</title>
    <desc>Created with Sketch.</desc>
    <defs></defs>
    <g id="Page-1" stroke="none" stroke-width="1" fill="none" fill-rule="evenodd" sketch:type="MSPage">
        <g id="project--lesetagebuch" sketch:type="MSArtboardGroup">
            <rect id="Rectangle-13" fill="#E9AF13" sketch:type="MSShapeGroup" x="0" y="0" width="460" height="260"></rect>
            <path d="M289.086779,65.5390808 C290.695925,66.0259999 292,67.6688358 292,69.2086053 L292,205.99239 C292,205.99239 287.560169,210.79903 280.045337,214.209952 C272.185169,217.777619 265.520917,220 261.25,220 C261.237421,219.979502 174.840635,193.802557 174.840635,193.802557 C171.612264,192.825669 169,189.537348 169,186.456076 L169,58.0425633 C169,54.9750636 171.614941,53.2546949 174.840635,54.2307725 L176.6875,54.789624 L176.6875,183.664341 C176.6875,185.204111 177.991575,186.846947 179.600721,187.333866 L261.099758,211.995039 C261.25,211.575262 269.365417,211.911924 276.625,207.388108 C278.603977,206.154907 280.646553,204.660586 282.570926,203.139203 L205.590635,179.845378 C202.362264,178.868491 199.75,175.580169 199.75,172.498898 L199.75,44.0853849 C199.75,41.0178851 202.364941,39.2975164 205.590635,40.2735941 L289.086779,65.5390808 Z" id="icon__logo" fill="#FFFFFF" sketch:type="MSShapeGroup"></path>
        </g>
    </g>
</svg>